<?xml version="1.0" encoding="utf-8"?>
<!-- Generator: Adobe Illustrator 27.3.1, SVG Export Plug-In . SVG Version: 6.00 Build 0)  -->
<svg version="1.1" id="Alphabets" xmlns="http://www.w3.org/2000/svg" xmlns:xlink="http://www.w3.org/1999/xlink" x="0px" y="0px"
	 viewBox="0 0 39.6 90.72" style="enable-background:new 0 0 39.6 90.72;" xml:space="preserve">
<style type="text/css">
	.st0{display:none;}
	.st1{display:inline;}
</style>
<g id="A" class="st0">
	<path class="st1" d="M28.89,46.57c-1.11-0.95-2.19-1.93-3.28-2.91c-0.42-0.37-0.82-0.77-1.22-1.16c-0.45,0.45-0.92,0.87-1.34,1.34
		c-0.28,0.32-0.51,0.7-0.73,1.07c-0.05,0.09-0.01,0.24-0.01,0.36c0.08,0.02,0.15,0.05,0.23,0.07c-0.1,0.19-0.18,0.52-0.3,0.54
		c-1.28,0.19-1.81,1.23-2.48,2.1c-0.91,1.17-1.53,2.56-2.7,3.52c-0.47,0.38-0.98,0.71-1.44,1.1c-0.35,0.29-0.68,0.62-0.98,0.97
		c-0.28,0.33-0.46,0.77-0.79,1.04c-0.31,0.25-0.82,0.27-1.12,0.53c-1.16,0.98-2.27,2.02-3.42,3.02c-0.37,0.32-0.84,0.53-1.18,0.87
		c-0.34,0.34-0.51,0.88-0.89,1.16c-0.41,0.31-0.9,0.65-1.51,0.51c-0.09,0.26-0.16,0.52-0.25,0.77c-0.39,0.31-0.76,0.63-1.11,0.95
		c-0.65,0.59-1.26,1.14-1.96,1.55c-0.31,0.18-0.41,0.47-0.48,0.66c-0.2,0.39-0.04,0.86,0.35,1.06c0.11,0.06,0.23,0.08,0.35,0.08
		c0.29,0,0.57-0.16,0.7-0.43c0.02-0.03,0.03-0.07,0.05-0.12c0.77-0.48,1.41-1.06,2.04-1.63c0.38-0.34,0.74-0.66,1.12-0.96
		c1.53-0.94,3.11-1.76,4.99-1.96c0.46-0.05,0.95-0.27,1.31-0.55c1.61-1.25,3.36-2.32,4.85-3.74c0.87-0.83,1.85-1.55,2.86-2.24
		c1.09-0.74,2.17-1.53,3.14-2.41c1.19-1.08,2.54-1.9,3.86-2.78c0.55-0.37,1.08-0.77,1.56-1.22C29.62,47.28,29.53,47.12,28.89,46.57z
		"/>
	<path class="st1" d="M37.5,24.95c-1.44-0.01-2.87,0-4.31,0c-1.32,0-2.64,0-3.97,0c-0.66,0-1.33-0.06-1.93,0.33
		c-0.19,0.12-0.63-0.13-0.62,0.34c0.01,0.26,0.07,0.56,0.23,0.75c0.61,0.74,1.51,1,2.37,1.33c0.89,0.35,1.9,0.44,2.6,1.22
		c0.2,0.22,0.17,0.31,0.07,0.62c-0.54,1.8-0.48,3.65-0.45,5.5c-0.3,0.4-0.72,1.02-0.61,1.87c0.05,0.4,0.39,0.69,0.78,0.69
		c0.03,0,0.07,0,0.1-0.01c0.43-0.06,0.73-0.45,0.68-0.88c-0.03-0.2,0.06-0.38,0.33-0.75c0.06,0,0.11,0,0.17,0.01
		c0.28,0.04,0.67,0.65,0.64-0.21c2.25-2.71,3.61-5.91,4.99-9.09C39.08,25.53,38.72,24.96,37.5,24.95z"/>
	<path class="st1" d="M32.31,37.41c-0.09,0.02-0.11,0.38-0.17,0.65c0.09,0.19,0.2,0.41,0.3,0.64c0.23-0.13,0.49-0.23,0.66-0.41
		c0.17-0.18,0.25-0.45,0.36-0.69c0.03-0.06-0.01-0.22-0.02-0.22C33.06,37.37,32.68,37.33,32.31,37.41z"/>
	<path class="st1" d="M2.78,37.23c0.13,0,0.25-0.02,0.38-0.05c0.68,0.43,1.38,0.83,1.98,1.35c1.13,0.95,2.06,0.96,3.18,0.18
		c0.93-0.66,1.89-1.28,2.81-1.95c0.16-0.11,0.31-0.37,0.29-0.55c-0.06-0.61,0.28-0.62,0.73-0.61c0.35,0.01,0.35-0.17,0.12-0.37
		c-0.72-0.61-1.42-1.26-2.19-1.81c-0.88-0.62-1.83-1.13-2.74-1.72c-0.61-0.39-1.12-0.34-1.66,0.16c-0.48,0.45-0.98,0.97-1.57,1.19
		c-0.88,0.32-1,0.87-0.99,1.66c0.01,0.43,0,0.7-0.08,0.86c-0.04,0.01-0.07,0.01-0.11,0.03c-0.15,0.08-0.19,0.05-0.24,0.03
		c-0.15-0.09-0.29-0.2-0.42-0.31l-0.22-0.17c-0.35-0.26-0.84-0.19-1.1,0.16c-0.26,0.35-0.19,0.84,0.16,1.1l0.2,0.15
		c0.18,0.14,0.35,0.27,0.54,0.39C2.15,37.13,2.46,37.23,2.78,37.23z"/>
</g>
<g id="B" class="st0">
	<path class="st1" d="M26.15,47.87c0.38-0.39,0.22-0.53-0.07-0.76c-0.58-0.46-1.16-0.9-1.73-1.37c-1.42-1.16-2.7-2.48-4.22-3.52
		l-0.12-0.81c-0.06-0.44-0.47-0.75-0.91-0.69c-0.44,0.06-0.75,0.47-0.69,0.91l0.1,0.73c-0.01,0.01-0.01,0.01-0.01,0.02
		c-0.23,0.27-0.16,0.45-0.01,0.74c0.16,0.34,0.3,0.84,0.15,1.13c-0.24,0.48-0.54,0.87-0.01,1.47c-0.2,0.09-0.44,0.13-0.55,0.27
		c-1.1,1.3-2.18,2.61-3.25,3.93c-0.28,0.34-0.45,0.79-0.76,1.08c-1.6,1.51-3.23,2.99-4.85,4.49c-0.09,0.08-0.16,0.18-0.25,0.25
		c-2.05,1.46-4.07,3.59-5.07,5.42c-0.12,0.22-0.16,0.61-0.04,0.81c0.19,0.33,0.44,0.07,0.71-0.06c0.49-0.23,1.07-0.27,1.55-0.51
		c0.98-0.48,2.12-0.49,3.04-1.23c1.65-1.33,3.42-2.51,5.15-3.75c0.82-0.59,1.65-1.14,2.45-1.74c1.08-0.81,2.12-1.68,3.22-2.47
		c0.99-0.72,2.06-1.32,3.02-2.08C24.03,49.33,25.23,48.81,26.15,47.87z"/>
	<path class="st1" d="M17.27,41.87c-0.04-0.04-0.08-0.08-0.13-0.13c-0.07,0.04-0.15,0.08-0.23,0.13c0.04,0.04,0.09,0.12,0.12,0.11
		C17.12,41.96,17.2,41.91,17.27,41.87z"/>
	<path class="st1" d="M32.35,61.94c-0.46-0.23-0.93-0.3-1.39-0.23c-0.52-0.41-0.96-0.92-1.47-1.33c-0.73-0.59-1.54-1.09-2.32-1.62
		c-0.13-0.09-0.3-0.13-0.51-0.21c-0.18,0.1-0.37,0.21-0.57,0.29c-1.29,0.54-2.26,1.5-3.2,2.49c-0.32,0.33-0.92,0.67-1.39,0.82
		c-0.2,0.07-0.42,0.23-0.52,0.41c-0.05,0.09,0.12,0.34,0.23,0.48c0.95,1.16,2.29,1.84,3.44,2.75c1.42,1.12,1.78,1.29,3.26,0.38
		c1.27-0.78,2.63-1.5,3.43-2.86c0.09,0.01,0.18,0.03,0.28,0.09c0.12,0.06,0.25,0.09,0.37,0.09c0.29,0,0.57-0.16,0.72-0.44
		C32.9,62.63,32.75,62.14,32.35,61.94z"/>
	<path class="st1" d="M35.71,31.28c0-0.13-0.01-0.25-0.01-0.38c0-1.58,0.01-3.17-0.01-4.75c0-0.38,0.19-0.85-0.28-1.11
		c-0.57-0.33-1.12-0.82-1.73-0.91c-1.04-0.15-2.15-0.21-3.17,0c-1.55,0.31-3.1,0.52-4.67,0.68c-0.43,0.04-0.91,0.14-1.25,0.37
		c-0.2,0.14-0.14,0.61-0.23,0.92c-0.06,0.2-0.16,0.42-0.3,0.58c-0.29,0.31-0.6,0.56-0.96,0.72c-0.02,0-0.03,0-0.05,0
		c-0.53,0.05-1.03,0.09-1.53,0.1c-0.45,0.01-0.91-0.01-1.37-0.03c-0.92-0.04-1.88-0.07-2.83,0.1c-0.57,0.1-1.09,0.06-1.62-0.05
		c-0.3-0.12-0.57-0.34-0.91-0.72c-0.1-0.11-0.26-0.25-0.38-0.24c-0.72,0.08-1.76-0.45-1.86,0.9l-2.38,0.59
		c-0.43,0.11-0.7,0.55-0.59,0.98c0.09,0.37,0.42,0.61,0.78,0.61c0.06,0,0.13-0.01,0.2-0.02l2.46-0.61c0.66,0,1.31,0,1.97,0
		c0.52,0.13,1.07,0.23,1.65,0.23c0.31,0,0.63-0.03,0.97-0.09c0.77-0.14,1.6-0.11,2.47-0.07c0.49,0.02,0.98,0.04,1.46,0.03
		c0.41-0.01,0.81-0.04,1.2-0.07c1.66,0.02,3.32,0.02,4.98-0.06c1.65-0.08,2.91,0.65,4.21,1.41c0.75,0.44,1.48,0.89,2.23,1.33
		c0.02,0.08,0.03,0.17,0.02,0.26c-0.02,0.45,0.32,0.82,0.77,0.84c0.01,0,0.02,0,0.04,0c0.43,0,0.79-0.34,0.81-0.77
		C35.81,31.77,35.77,31.52,35.71,31.28z"/>
</g>
<g id="C" class="st0">
	<path class="st1" d="M36.99,43.69c0.07-0.74-0.19-1.35-0.47-1.98c-0.04-0.09-0.33-0.18-0.36-0.15c-0.46,0.56-0.61-0.32-1.03-0.21
		c-0.47,0.13-1.01,0.01-1.51,0.03c-1.9,0.1-3.8-0.2-5.71,0.38c-1.24,0.38-2.65,0.21-3.93,0.52c-0.85,0.21-1.93,0.33-2.08,1.68
		c-0.08,0.69-0.49,1.18-1.04,1.46c-0.88,0.07-1.75,0.18-2.6,0.29c-1.37,0.18-2.66,0.35-4.03,0.36c-3.53,0.03-7.18,0.07-10.78,0.62
		c-0.54,0.08-0.92,0.59-0.83,1.13c0.07,0.49,0.5,0.85,0.98,0.85c0.05,0,0.1,0,0.15-0.01c3.46-0.52,7.04-0.56,10.55-0.59
		c1.44-0.01,2.85-0.2,4.22-0.37c1.04-0.13,2.02-0.26,3.02-0.32c2.22-0.07,4.47,0.09,6.7,0.08c0.46,0,0.76,0.26,1.14,0.4
		c1.62,0.62,2.88,1.78,4.34,2.64c0.19,0.11,0.56,0.27,0.59,0.23c0.64-0.88,1.23-0.83,1.86,0.02c0.09,0.13,0.41,0.21,0.56,0.16
		c0.13-0.05,0.24-0.33,0.25-0.5c0.02-1.23,0.01-2.45,0.01-3.68C36.96,45.7,36.9,44.69,36.99,43.69z"/>
	<path class="st1" d="M19.28,55.24c-2.39,0.04-4.79,0-7.18,0.02c-0.96,0.01-2.04-0.33-2.75,0.74c-0.1,0.15-0.55,0.03-0.8,0.13
		c-0.62,0.24-1.26,0.48-1.83,0.82c-0.5,0.3-0.37,0.74,0.06,1.02c0.27,0.17,0.63,0.21,0.95,0.33c0.95,0.35,1.96,0.47,2.93,0.79
		c0.82,0.28,0.68,0.94,0.53,1.08c-0.64,0.62-0.29,1.35-0.4,2.02c-0.14,0.81,0.05,1.58-0.35,2.45c-0.63,1.38,0.24,2.27,1.85,2.32
		c0.14,0,0.29,0,0.59,0c1.04,0.15,1.62-0.42,2.34-1.42c1.94-2.65,3.01-5.7,4.5-8.55c0.15-0.29,0.18-0.65,0.23-0.98
		C20.02,55.52,19.92,55.23,19.28,55.24z"/>
	<path class="st1" d="M5.78,30.88c0.07,0,0.15-0.01,0.23-0.03c0.3-0.07,0.6-0.11,0.9-0.16c0.7-0.1,1.47-0.22,2.2-0.59
		c0.03,0,0.06,0,0.09,0c0.58,0,1.34-0.23,1.7,0.05c0.45,0.35,0.76,0.14,1.07,0.01c0.1,0.03,0.21,0.05,0.34,0.05
		c0.52,0,1.03,0.02,1.55,0.04c1.39,0.04,2.82,0.09,4.25-0.1c0.44-0.06,0.91,0,1.4,0.06c0.63,0.08,1.33,0.17,2.08,0.03
		c0.05,0.01,0.1,0.03,0.15,0.05c0.13,0.05,0.25,0.09,0.38,0.12c0.08,0.02,0.16,0.03,0.24,0.03c0.14,0,0.28-0.04,0.4-0.1
		c2.03,0.32,3.55,0.24,5.75-0.23c0.31-0.07,0.72,0.02,1,0.18c1.05,0.62,2.08,1.29,3.09,1.98c0.57,0.39,1.12,1.23,1.63,1.2
		c0.64-0.04,1.19-0.87,1.87-1.18c0.72-0.32,0.89-0.79,0.87-1.48c-0.03-0.86-0.01-1.73-0.01-2.6c0-1.08,0.05-2.17-0.03-3.24
		c-0.02-0.31-0.44-0.59-0.68-0.88c-0.58,0.92-1.07-0.12-1.62-0.07c-0.65,0.06-1.31,0.08-1.95-0.01c-0.75-0.1-1.33,0.34-2,0.45
		c-1.02,0.17-2.03-0.09-3.12,0.34c-0.95,0.37-2.17,0.22-3.27,0.49c-0.57,0.14-0.84,0.16-0.86,0.84c-0.03,1.32-0.47,1.95-1.53,2.15
		c-0.19-0.03-0.39-0.04-0.61,0c-0.46,0.1-0.95,0.04-1.52-0.03c-0.05-0.01-0.1-0.01-0.15-0.02c-0.1-0.06-0.2-0.13-0.29-0.23
		c-0.17-0.18-0.75-0.18-1.03-0.05c-0.24,0.12-0.48,0.19-0.72,0.26c-1.17,0.12-2.37,0.09-3.63,0.06c-0.44-0.01-0.88-0.03-1.32-0.03
		c-0.19-0.1-0.34-0.25-0.39-0.46c-0.15-0.65-0.46-0.75-1.01-0.71c-0.51,0.04-1.01,0.01-1.52,0.01c-0.43,0-0.98-0.14-1.26,0.07
		c-0.24,0.17-0.13,0.78-0.25,1.16c-0.01,0.03-0.02,0.05-0.04,0.07c-0.43,0.2-0.94,0.28-1.5,0.36c-0.36,0.05-0.72,0.11-1.07,0.19
		c-0.53,0.12-0.87,0.66-0.74,1.19C4.92,30.57,5.33,30.88,5.78,30.88z"/>
</g>
<g id="D" class="st0">
	<path class="st1" d="M7.7,24.3c-1.38,0.02-2.75,0.05-4.13-0.01c-0.18-0.01-0.36,0.01-0.55,0.03C2.7,24.27,2.38,24.16,2.05,24
		c-0.33-0.17-0.74-0.03-0.9,0.3c-0.17,0.33-0.03,0.74,0.3,0.9c0.32,0.16,0.64,0.28,0.96,0.37c0.19,0.1,0.39,0.18,0.63,0.2
		c0.79,0.08,1.25,0.62,1.74,1.12c0.32,0.32,0.34,0.69-0.01,0.99c-0.57,0.51-0.42,1.09-0.24,1.7c0.16,0.52,0.34,1.04,0.43,1.58
		c0.04,0.25-0.01,0.65-0.17,0.78c-0.48,0.37-0.42,0.85-0.39,1.32c0.08,1.33,0.26,2.65,0.28,3.98c0.04,4.35,0.01,8.7,0.01,13.05
		c0,3.12,0,6.23,0,9.35c-0.54,0.78-0.54,1.63,0,2.42c0,0.26,0,0.52,0,0.78l-0.23,3.24c-0.03,0.37,0.25,0.69,0.62,0.72
		c0.02,0,0.03,0,0.05,0c0.35,0,0.64-0.27,0.67-0.62l0.2-2.84c0.1-0.5,0.2-1.01,0.33-1.51c0.02-0.07-0.04-0.2-0.11-0.25
		c-0.12-0.09-0.26-0.2-0.4-0.24c0-0.01-0.01-0.02-0.01-0.02c-0.25-0.34-0.25-0.59-0.03-0.92c0.02,0,0.03,0,0.05,0.01
		c0.52,0.03,0.86-0.18,0.9-0.68c0.12-1.3,0.39-2.58,0.55-3.87c0.09-0.75,0.4-1.45,0.35-2.22c-0.05-0.76,0.05-1.48,0.26-2.23
		c0.19-0.71,0.03-1.47,0.28-2.23c0.24-0.73-0.1-1.61,0.34-2.36c-0.18-1.44,0.28-2.85,0.29-4.28c0.02-5.18,0.01-10.36,0.01-15.54
		c0-0.38-0.09-0.85,0.08-1.13c0.28-0.45,0.28-0.74-0.06-1.13C8.53,24.38,8.17,24.29,7.7,24.3z"/>
	<path class="st1" d="M38.5,24.65c-0.14-0.19-0.46-0.28-0.72-0.34c-0.23-0.05-0.49-0.01-0.73-0.01c-0.98,0-1.96,0-2.95,0
		c-1.13,0-2.26,0.01-3.39,0c-0.49-0.01-1.01,0.17-1.17,0.54c-0.12,0.29,0.18,0.76,0.32,1.14c0.05,0.12,0.18,0.24,0.31,0.31
		c0.71,0.42,1.38,1.01,2.15,1.19c0.76,0.18,0.95,0.78,1.41,1.18c0.3,0.26,0.23,0.46-0.03,0.71c-0.5,0.48-0.58,1.15-0.65,1.78
		c-0.07,0.63-0.02,1.27-0.02,1.9c0,0.63,0,1.27,0,1.9c0,0.63-0.15,1.32,0.04,1.89c0.2,0.61-0.21,1.12-0.04,1.67
		c0.05,0.16,0.15,0.44,0.21,0.44c0.18-0.01,0.34,0.02,0.49,0.07c0.12,0.5,0.47,0.87,1.01,1.04c0.07,0.02,0.14,0.03,0.2,0.03
		c0.29,0,0.55-0.18,0.64-0.47c0.11-0.35-0.08-0.73-0.44-0.84c-0.11-0.03-0.13-0.04-0.12-0.21c0-0.01-0.01-0.03-0.01-0.04
		c0.07-0.22,0.14-0.45,0.11-0.68c-0.07-0.52,0.16-1.09,0.26-1.63c0.02-0.09,0.04-0.24,0-0.29c-0.62-0.59-0.23-1.02,0.23-1.43
		c0.59-0.52,0.36-1.31,0.64-1.93c0.14-0.32,0.66-0.7,0.03-1.09c-0.03-0.02,0.08-0.41,0.2-0.46c0.52-0.24,0.84-0.56,0.67-1.18
		c0.52-0.56,0.15-1.29,0.35-1.91c0.27-0.87,0.56-1.72,0.83-2.59C38.42,25.11,38.59,24.78,38.5,24.65z"/>
	<path class="st1" d="M25.01,27.03c-0.46-0.4-0.91-0.81-1.43-1.16c-1.11-0.75-1.07-0.81-2.43-0.68c-0.28,0.03-0.64,0.01-0.8,0.17
		c-0.94,0.94-2.27,1.39-3.12,2.46c-0.39,0.49-0.45,0.48,0.07,0.94c1.08,0.95,2.32,1.68,3.56,2.4c0.43,0.25,0.81,0.24,1.2,0.08
		c1.58-0.65,2.88-1.79,4.37-2.59c0.06-0.03,0.07-0.16,0.12-0.29c-0.07-0.09-0.14-0.22-0.24-0.3C25.89,27.71,25.43,27.39,25.01,27.03
		z"/>
	<path class="st1" d="M34.61,40.18c-0.15-0.02-0.34,0.11-0.48,0.21c-0.26,0.2-0.48,0.55-0.76,0.61c-0.47,0.1-0.41,0.49-0.31,0.63
		c0.35,0.47,0.25,0.99,0.28,1.49c0,0.08,0.08,0.16,0.13,0.24c0.05-0.07,0.1-0.13,0.16-0.2c0.69-0.79,1.17-1.81,1.18-2.68
		C34.78,40.45,34.72,40.19,34.61,40.18z"/>
</g>
<g id="E" class="st0">
	<path class="st1" d="M28.81,43.66c-0.35-0.36-0.83-0.59-1.22-0.92c-0.84-0.7-1.65-1.44-2.5-2.14c-0.31-0.26-0.66-0.46-1-0.68
		c-0.36-0.23-0.65-0.09-0.92,0.31c-0.26,0.37-0.34,0.57-0.04,1.05c0.49,0.78,0.7,1.73,1.02,2.62c0.2,0.55-0.47,1.1,0,1.66
		c-0.06,0.36-0.22,0.62-0.65,0.52c-0.08-0.02-0.2-0.1-0.22-0.07c-0.47,0.5-1.06,0.94-1.35,1.52c-0.38,0.77-0.9,1.38-1.5,1.94
		c-1.16,1.07-2.17,2.28-3.49,3.2c-1.36,0.94-2.5,2.21-3.89,3.09c-0.64,0.41-0.6,0.83-0.48,1.23c0.14,0.46,0.58,0.82,0.86,1.24
		c0.24,0.35,0.63,0.31,0.87,0.2c1.1-0.48,2.2-0.97,3.14-1.77c1.12-0.96,2.36-1.8,3.54-2.71c1.14-0.87,2.27-1.76,3.42-2.63
		c1.1-0.84,2.19-1.69,3.31-2.5c0.94-0.69,1.91-1.34,2.86-2.03c0.39-0.28,0.57-0.55,0.12-1.01C30,45.11,29.46,44.34,28.81,43.66z"/>
	<path class="st1" d="M8.41,42.72c-1.27-0.87-1.54-0.77-2.85,0.31c-0.15,0.13-0.34,0.21-0.52,0.31c-1.03,0.54-1.82,1.38-2.64,2.18
		c-0.2,0.2-0.17,0.27,0,0.47c1.05,1.18,2.36,2.01,3.62,2.92c0.34,0.25,0.81,0.47,1.2,0.46c0.41-0.02,0.83-0.3,1.21-0.53
		c0.43-0.26,0.83-0.59,1.24-0.9c0.41-0.3,0.83-0.6,1.23-0.91c0.12-0.09,0.32-0.24,0.3-0.34c-0.08-0.63,0.15-0.89,0.79-0.78
		c0.04,0.01,0.08-0.05,0.17-0.12c-0.08-0.1-0.16-0.2-0.24-0.3C10.98,44.28,9.64,43.57,8.41,42.72z"/>
	<path class="st1" d="M4.02,63.17c-0.21-0.02-0.4-0.02-0.58-0.02c-0.47-0.31-0.78-0.19-1.36,0.37c-0.48,0.3-0.87,0.79-1.21,1.51
		c-0.17,0.37-0.02,0.81,0.35,0.98c0.1,0.05,0.21,0.07,0.31,0.07c0.28,0,0.54-0.16,0.67-0.42c0.16-0.33,0.3-0.57,0.45-0.73
		c0.17-0.09,0.34-0.19,0.51-0.28c0.19-0.04,0.43-0.04,0.73-0.02c0.41,0.04,0.76-0.26,0.8-0.67C4.73,63.56,4.43,63.2,4.02,63.17z"/>
	<path class="st1" d="M38.38,31.28c0.06-0.92,0.01-1.84,0.25-2.79c0.27-1.08,0.45-2.48-1.2-2.98c-0.15-0.05-0.23-0.32-0.35-0.48
		c-0.08-0.11-0.17-0.31-0.25-0.31c-1.02-0.02-2.11-0.22-3.05,0.06c-0.69,0.2-1.34,0.1-1.98,0.27c-0.65,0.17-1.28,0.33-1.97,0.33
		c-0.49-0.01-0.99,0.18-1.48,0.31c-0.12,0.03-0.31,0.17-0.3,0.25c0.06,0.92-0.8,1.18-1.24,1.74c0,0-0.01,0.01-0.01,0.01
		c-0.39,0.03-0.79,0.06-1.18,0.09c-1.07,0.08-2.18,0.17-3.26,0.2c-0.03,0-0.06,0-0.1,0c-0.03-0.02-0.06-0.03-0.08-0.04
		c-0.11-0.07-0.37-0.06-0.46,0.02c-0.02,0.02-0.04,0.03-0.06,0.05c-0.54,0.03-1.06,0.02-1.53-0.13c-0.09-0.09-0.18-0.19-0.25-0.28
		c-0.41-0.51-0.74-0.75-1.24-0.64c-0.71,0-1.46-0.24-1.35,0.84l-1.9,0.54c-0.39,0.11-0.62,0.52-0.51,0.91
		c0.09,0.32,0.39,0.54,0.71,0.54c0.07,0,0.13-0.01,0.2-0.03l2.09-0.59c0.34-0.04,0.67-0.06,0.86,0.09c0.37,0.3,0.66,0.16,0.94,0.04
		c0.49,0.16,0.99,0.21,1.46,0.21c0.27,0,0.53-0.01,0.78-0.03c0.16-0.01,0.32-0.02,0.48-0.02c1.12-0.03,2.24-0.12,3.33-0.2
		c0.12-0.01,0.25-0.02,0.37-0.03c1.99,0,3.97-0.01,5.96-0.01c0.37,0,0.67,0.13,1.01,0.29c1.37,0.65,2.62,1.5,3.91,2.27l0.41,0.82
		c0.13,0.26,0.39,0.41,0.66,0.41c0.11,0,0.22-0.03,0.33-0.08c0.36-0.18,0.51-0.63,0.33-0.99L38.38,31.28z"/>
</g>
<g id="F" class="st0">
	<path class="st1" d="M35.82,39.49c-0.1-2.1-0.02-4.22-0.02-6.33c0-2.94,0-5.89,0.01-8.83c0-0.4-0.2-0.62-0.49-0.36
		c-0.37,0.32-0.74,0.2-1.1,0.21c-1.53,0.02-3.06,0.01-4.59,0.01c-0.43,0-0.83-0.01-1.22,0.28c-0.36,0.27-0.45,0.47-0.05,0.7
		c0.72,0.4,1.45,0.79,2.22,1.06c0.31,0.11,0.44,0.16,0.53,0.49c0.13,0.47,0.31,1.55,0.29,2.02c-0.04,0.88-0.04,1.76-0.03,2.64
		c0,0.17,0.06,0.42,0.18,0.5c0.45,0.3,0.36,0.74,0.41,1.17c0.18,1.45-0.33,2.85-0.31,4.29c0.02,1.52-0.02,3.04,0.01,4.56
		c0.03,1.48-0.09,2.96,0.25,4.45c0.27,1.19,0.11,2.46,0.28,3.7c0.31,2.24,0.26,4.52,0.35,6.79c0,0.05,0,0.1,0,0.15l-0.01,0.12
		c-0.08,0.79-0.16,1.61-0.2,2.42c-0.02,0.35,0.13,0.64,0.24,0.85c0.03,0.06,0.06,0.11,0.08,0.17c0.11,0.26,0.36,0.42,0.63,0.42
		c0.08,0,0.17-0.02,0.25-0.05c0.35-0.14,0.51-0.53,0.37-0.88c-0.04-0.1-0.09-0.2-0.14-0.29c-0.03-0.06-0.08-0.15-0.09-0.15
		c0,0,0,0,0,0c0.04-0.79,0.12-1.59,0.2-2.37l0.08-0.85c0-0.01,0-0.02,0-0.04c0.01-0.07,0.02-0.14,0.04-0.22
		c0.16-0.87,0.02-1.78,0.3-2.68c0.19-0.61,0.07-1.28,0.29-1.94c0.21-0.65,0.02-1.38,0.31-2.09c0.19-0.46-0.08-1.14,0.15-1.55
		c0.28-0.5,0.18-0.95,0.16-1.4c-0.03-0.55,0.32-1.01,0.3-1.5C35.39,43.12,35.9,41.34,35.82,39.49z"/>
	<path class="st1" d="M11.72,42.16c-1.14,0.01-2.27,0.03-3.41-0.01c-0.61-0.02-1.22,0.16-1.82-0.25c-0.25-0.18-0.78-0.08-1.13,0.05
		c-0.19,0.07-0.4,0.46-0.38,0.69c0.06,0.57-0.5,0.33-0.67,0.59c-0.11,0.16-0.35,0.23-0.54,0.35c0.16,0.22,0.28,0.51,0.5,0.64
		c0.51,0.3,1.07,0.51,1.6,0.78c0.71,0.36,1.12,1.12,0.77,1.78c-0.21,0.39-0.18,0.73-0.19,1.1c-0.02,0.88-0.09,1.78,0.01,2.65
		c0.09,0.81,0.81,1.5,0.57,2.41C7.66,53.33,7.2,54,7.42,54.53c0.04,0.1,0.07,0.21,0.1,0.32c-0.01,0.14-0.01,0.28-0.02,0.42
		c-0.04,0.77-0.08,1.57-0.09,2.36c0,0.38,0.11,0.72,0.2,1.02c0.03,0.11,0.07,0.22,0.1,0.33c0.08,0.31,0.35,0.51,0.65,0.51
		c0.05,0,0.11-0.01,0.17-0.02c0.36-0.09,0.58-0.46,0.49-0.82c-0.03-0.14-0.08-0.27-0.12-0.41c-0.07-0.23-0.14-0.44-0.14-0.6
		c0-0.18,0.01-0.36,0.01-0.54c0.04-0.28,0.03-0.57,0.03-0.85c0.01-0.22,0.02-0.43,0.03-0.64c0.08-0.66,0.24-1.31,0.26-1.97
		c0.03-0.99,0.31-1.92,0.67-2.82c0.44-1.1,0.86-2.21,1.12-3.37c0.34-1.48,0.56-2.98,1.07-4.42c0.05-0.13,0.11-0.26,0.12-0.39
		C12.1,42.39,12.1,42.16,11.72,42.16z"/>
	<path class="st1" d="M31.52,61.33c-0.12,0.3-0.12,0.63-0.17,0.96c-0.01,0.05,0,0.1,0,0.15c0.03,0.52,0.12,1.04,0.21,1.56
		c-0.02,0.32-0.08,0.66-0.15,1.02c-0.04,0.21-0.08,0.42-0.12,0.63c-0.05,0.29,0.06,0.54,0.13,0.69c0.01,0.03,0.02,0.05,0.03,0.08
		c0.09,0.28,0.36,0.46,0.64,0.46c0.07,0,0.14-0.01,0.21-0.03c0.35-0.12,0.54-0.5,0.43-0.85c-0.02-0.07-0.05-0.14-0.09-0.21
		c0-0.01-0.01-0.01-0.01-0.02c0.03-0.16,0.06-0.31,0.09-0.47c0.11-0.55,0.23-1.16,0.17-1.81c0.03-0.2,0.08-0.39,0.19-0.6
		c0.17-0.31,0-0.83-0.11-1.24C32.92,61.44,31.57,61.19,31.52,61.33z"/>
	<path class="st1" d="M21.77,41.57c-0.81-0.01-0.81-0.01-0.8,0.59c0.01,0.18,0,0.43,0.11,0.52c0.2,0.17,0.46,0.29,0.72,0.35
		c0.34,0.08,0.63-0.34,0.65-0.9C22.47,41.58,22.47,41.58,21.77,41.57z"/>
	<path class="st1" d="M27.11,30.59c-0.29-0.03-0.55,0.01-0.78,0.08c-0.08,0-0.16,0.01-0.23,0c-1.13-0.01-2.27,0-3.4,0
		c-1.12,0-1.12,0-1.12,1.18c0,0.34,0.02,0.69-0.01,1.03c-0.02,0.17-0.08,0.39-0.21,0.49c-0.47,0.42-0.6,0.74,0.16,0.93
		c0.22,0.7,0.49,1.38,0.63,2.09c0.1,0.51,0.09,1.05-0.47,1.42c-0.44,0.29-0.67,0.72-0.77,1.3c-0.14,0.78-0.06,1,0.83,0.99
		c0.3-0.3,0.99,0.12,1.25-0.39c0.54-1.07,1.27-2.03,1.83-3.08c0.8-1.52,1.46-3.12,2.15-4.7c0.01,0,0.03,0,0.04,0
		c0.37,0.04,0.7-0.24,0.73-0.61C27.75,30.95,27.48,30.62,27.11,30.59z"/>
	<path class="st1" d="M7.61,61.26c-0.18,0.05-0.54,0.14-0.83,0.37c-0.27,0.03-0.33,0.13-0.35,0.44c-0.1,0.21-0.14,0.48-0.08,0.83
		c0,0.04-0.03,0.14-0.05,0.22c-0.03,0.1-0.06,0.2-0.08,0.29c-0.07,0.37,0.16,0.72,0.53,0.79c0.04,0.01,0.09,0.01,0.13,0.01
		c0.32,0,0.6-0.22,0.66-0.54c0.01-0.06,0.03-0.12,0.05-0.18c0.06-0.22,0.14-0.49,0.09-0.81c0-0.01,0-0.03-0.01-0.04
		c0.08-0.03,0.21-0.07,0.26-0.08c0.36-0.09,0.58-0.46,0.49-0.82C8.34,61.38,7.97,61.16,7.61,61.26z"/>
</g>
<g id="G" class="st0">
	<path class="st1" d="M19.63,31.43c0.86-0.02,0.88-0.03,0.9,0.59c0.01,0.49,0.12,1.04-0.61,1.15c-0.36,0.06-0.21,0.35-0.21,0.55
		c-0.01,1.24-0.01,2.49-0.01,3.73c0,0.72,0.02,1.43,0.02,2.15c0,0.01,0,0.02,0,0.02c-0.04,0.46-0.09,0.94-0.08,1.43
		c0.01,0.39,0.1,0.75,0.18,1.09c0.01,0.05,0.02,0.1,0.04,0.15c-0.03,0.06-0.07,0.13-0.13,0.19c-0.04,0.04,0.22,0.48,0.42,0.6
		c0.14,0.09,0.44,0,0.63-0.09c0,0,0,0,0.01,0c0.27-0.12,0.43-0.4,0.37-0.69c-0.03-0.15-0.07-0.3-0.1-0.45
		c-0.07-0.29-0.14-0.57-0.15-0.82c-0.01-0.41,0.03-0.83,0.07-1.28c0-0.01,0-0.02,0-0.03c0.05-0.12,0.1-0.23,0.16-0.33
		c0.09-0.14,0.49-0.14,0.75-0.13c0.5,0.02,0.39-0.48,0.5-0.68c0.26-0.48-0.02-1.12,0.34-1.66c0.08-0.12-0.19-0.45-0.25-0.7
		c-0.09-0.38,0.23-0.88,0.45-0.75c0.51,0.31,0.6-0.14,0.63-0.32c0.08-0.52,0.03-1.03,0.27-1.55c0.15-0.32-0.02-0.79-0.04-1.2
		c-0.73,0.04-0.48-0.64-0.64-0.96c-0.36-0.72-0.06-1.45,0.71-1.53c0.61-0.06,0.54-0.5,0.78-0.74c0.1-0.1-0.01-0.41-0.03-0.63
		c-0.14,0.07-0.27,0.18-0.42,0.2c-0.11,0.01-0.28-0.05-0.34-0.14c-0.27-0.4-0.67-0.41-1.09-0.4c-1.62,0.01-3.24,0.06-4.86-0.02
		c-0.84-0.04-1.58,0.31-2.39,0.32c-0.18,0-0.44,0.21-0.5,0.38c-0.05,0.14,0.09,0.42,0.23,0.55c1.05,0.96,2.33,1.45,3.69,1.81
		C19.17,31.3,19.4,31.44,19.63,31.43z"/>
	<path class="st1" d="M6.23,56.93c-0.93-0.76-1.67-0.76-2.56,0.04c-0.36,0.32-0.68,0.66-1.14,0.9c-0.54,0.28-0.98,0.75-1.46,1.14
		c-0.31,0.24-0.38,0.47-0.04,0.76c0.78,0.67,1.51,1.41,2.35,2.01c0.5,0.36,1.16,0.52,1.74,0.76c0.32-0.14,0.54-0.29,0.79-0.33
		c0.55-0.09,0.75-0.64,1.17-0.86c0.19-0.1,0.38-0.06,0.42-0.38c0.12-0.99,0.14-0.99,1.13-1.03c0.09,0,0.2,0.03,0.27-0.01
		c0.15-0.08,0.33-0.18,0.41-0.32c0.04-0.07-0.07-0.29-0.17-0.37C8.16,58.48,7.19,57.71,6.23,56.93z"/>
	<path class="st1" d="M20.81,44.23c-0.32,0.12-0.59,0.38-0.98,0.27c-0.06,0.25-0.12,0.5-0.14,0.54c0,0.39-0.01,0.57,0,0.75
		c0.01,0.27,0.45,0.5,0.67,0.36c0.31-0.19,0.8-1.35,0.7-1.72C21.05,44.34,20.87,44.21,20.81,44.23z"/>
	<path class="st1" d="M38.08,46.21l-0.51,0.07c-0.13-0.1-0.26-0.2-0.4-0.3c-0.32-0.23-0.66-0.44-0.96-0.69
		c-1.14-0.94-2.28-1.9-3.42-2.84c0.06-0.21,0.02-0.44-0.13-0.61c-0.67-0.73-1.53-0.93-2.49-0.58c-0.33,0.12-0.5,0.48-0.38,0.81
		c0.12,0.33,0.48,0.5,0.81,0.38c0.47-0.17,0.8-0.1,1.12,0.25c0.12,0.13,0.29,0.2,0.46,0.2c0,0,0,0,0,0c0,0.34,0,0.68,0,1.02
		c-0.01,0.72,0.22,1.57-0.93,1.67c-0.06,0.01-0.14,0.1-0.17,0.18c-0.49,1.16-1.52,1.93-2.19,2.96c-0.16,0.25-0.28,0.55-0.5,0.76
		c-1.65,1.57-3.32,3.13-4.98,4.68c-0.12,0.11-0.31,0.15-0.44,0.26c-0.69,0.56-1.51,1.03-2.03,1.73c-0.38,0.51-0.81,0.86-1.28,1.24
		c-0.31,0.25-0.79,0.29-0.92,0.83c-0.07,0.28-0.22,0.44,0.04,0.68c0.23,0.23,0.38,0.18,0.69,0.06c0.92-0.34,1.78-0.82,2.79-1
		c1.37-0.24,2.59-0.91,3.67-1.84c0.91-0.78,1.88-1.49,2.83-2.22c0.97-0.74,1.96-1.47,2.96-2.18c0.96-0.69,1.97-1.31,2.88-2.06
		c0.95-0.78,2.1-1.29,3.01-2.12l0.66-0.09c0.35-0.05,0.59-0.37,0.54-0.72C38.74,46.4,38.42,46.16,38.08,46.21z"/>
</g>
<g id="H" class="st0">
	<path class="st1" d="M35.55,25.08c0-0.2,0.02-0.39,0-0.59c-0.04-0.34-0.18-0.2-0.34-0.07c-0.1,0.08-0.26,0.1-0.39,0.1
		c-1.91,0.01-3.83,0.01-5.74,0c-0.1-0.05-0.21-0.12-0.35-0.21c-0.23-0.15-0.48-0.32-0.8-0.42c-0.35-0.12-0.73,0.08-0.85,0.43
		c-0.12,0.35,0.08,0.73,0.43,0.85c0.14,0.05,0.3,0.15,0.47,0.26c0.24,0.16,0.53,0.35,0.9,0.45c0.32,0.2,0.65,0.39,1.01,0.51
		c0.75,0.25,0.96,0.72,0.95,1.5c-0.04,5.48-0.02,10.96-0.02,16.44c0,3.28,0,6.57,0,9.85c-0.23,0.53-0.23,1.06-0.23,1.55l0,1.1
		c0,1.19,0,2.37-0.01,3.56c0,0.18-0.04,0.38-0.08,0.59c-0.02,0.12-0.04,0.23-0.06,0.35c-0.05,0.37,0.2,0.71,0.57,0.76
		c0.03,0,0.07,0.01,0.1,0.01c0.33,0,0.62-0.24,0.67-0.58c0.01-0.1,0.03-0.2,0.05-0.3c0.05-0.26,0.09-0.53,0.1-0.82
		c0.01-1.19,0.01-2.38,0.01-3.57l0-1.1c0-0.36,0-0.67,0.09-0.93c0.09-0.15,0.2-0.3,0.31-0.43c0.31-0.35,0.69-0.19,1,0.13
		c0.04,0.04,0.41-0.12,0.41-0.2c0.04-0.95,0.01-1.88,0.29-2.82c0.22-0.75,0.04-1.67,0.37-2.34c0.32-0.64,0.05-1.25,0.26-1.8
		c0.22-0.59,0.25-1.18,0.28-1.79c0.09-1.57-0.04-3.14,0.22-4.73c0.33-2.07,0.14-4.21,0.3-6.33C35.73,31.36,35.55,28.21,35.55,25.08z
		"/>
	<path class="st1" d="M23.45,58.09c-0.02-0.95-0.26-1.82-0.59-2.7c-0.26-0.68-0.36-1.42-0.62-2.1c-0.21-0.55,0.09-1.51-1.03-1.45
		c-0.04,0-0.09-0.15-0.14-0.23c-0.33-0.45-0.59-0.93-0.79-1.43c-0.19-1.38-0.18-2.77-0.16-4.23c0.01-0.46,0.01-0.93,0.01-1.39
		c0.02-0.03,0.04-0.07,0.06-0.1c0.05-0.08,0.11-0.17,0.15-0.25c0.01-0.02,0.01-0.05,0.02-0.07c0.1-0.07,0.19-0.14,0.32-0.19
		c0.41-0.15,0.39-0.32,0.39-0.6c0.02-0.94-0.59-2.66-1.24-3.45c-0.05-0.06-0.19-0.11-0.25-0.09c-0.11,0.05-0.26,0.14-0.28,0.24
		c-0.13,0.64-0.33,1.25-0.33,1.93c0.01,0.63,0,1.25,0.01,1.88c-0.1,0.17-0.2,0.38-0.2,0.65c0,0.48,0,0.95-0.01,1.43
		c-0.02,1.58-0.03,3.2,0.23,4.82c0,1.09,0,2.18,0.01,3.27c0.01,1.23,0.18,2.47,0.29,3.7c0.01,0.12,0.18,0.23,0.19,0.36
		c0.05,0.42,0.24,1.07,0.05,1.24c-0.37,0.32-0.44,0.86-0.79,1.17c-0.92,0.35-1.91,0.4-2.81,0.39c-0.08-0.21-0.27-0.38-0.52-0.42
		c-0.37-0.07-0.72,0.18-0.78,0.55c0,0.02,0,0.03,0,0.04c-0.18,0.25-0.05,0.61-0.04,0.9c0,0.07,0.4,0.2,0.6,0.18
		c0.02,0,0.03,0,0.05-0.01c0.14,0.06,0.31,0.09,0.49,0.1c0.16,0,0.31,0.01,0.48,0.01c0.85,0,1.78-0.08,2.71-0.38
		c0.14,0,0.29,0.01,0.43,0.01c0.94,0,1.87-0.01,2.81,0.01c0.34,0.01,0.43-0.15,0.38-0.44c-0.08-0.48,0.07-0.86,0.55-1.03
		c0.32-0.11,0.69-0.65,0.63-0.96C23.63,58.99,23.46,58.54,23.45,58.09z"/>
	<path class="st1" d="M11.62,33.22c-0.97-0.57-1.68-1.43-2.5-2.17c-0.22-0.2-0.58-0.25-0.93-0.39c-0.15,0.08-0.32,0.15-0.47,0.24
		c-0.58,0.38-1.18,0.74-1.74,1.14c-0.69,0.5-1.07,1.38-1.96,1.67c-0.05,0.02-0.07,0.38,0.02,0.47c1.12,1.14,2.2,2.31,3.53,3.21
		c0.29,0.2,0.67,0.44,1.06,0.07c0.59-0.56,1.2-1.11,1.8-1.66c-0.21-0.89,0.6-1.04,1.08-1.24c0.39-0.16,0.39-0.31,0.4-0.6
		C11.92,33.68,11.92,33.39,11.62,33.22z"/>
	<path class="st1" d="M31.13,66.58c-0.02,0.03,0.14,0.18,0.21,0.28c0.22-0.2,0.45-0.39,0.65-0.6c0.03-0.03-0.11-0.2-0.24-0.43
		C31.51,66.12,31.3,66.34,31.13,66.58z"/>
</g>
<g id="I" class="st0">
	<path class="st1" d="M19.77,24.92c-0.2,0.06-0.39,0.16-0.59,0.18c-0.32,0.04-0.65,0.04-0.98,0.04c-1.57,0-3.14,0-4.71,0.01
		c-0.16,0-0.46,0.08-0.47,0.16c-0.03,0.21-0.01,0.47,0.11,0.64c0.11,0.16,0.36,0.25,0.57,0.32c1.43,0.46,1.44,0.45,2.06,1.47
		c0.07,0.11,0.06,0.38-0.02,0.46c-0.78,0.75-0.54,1.57-0.2,2.38c0.35,0.82,0.51,1.7,0.58,2.56c0.11,1.35,0.04,2.71,0.02,4.06
		c0,0.21-0.05,0.51-0.19,0.61c-0.44,0.3-0.33,0.72-0.38,1.12c-0.19,1.71,0.29,3.38,0.29,5.07c0,3.27,0,6.54,0,9.81
		c0,2.88,0,5.76,0,8.64l-0.01,0.11c-0.07,0.6-0.13,1.21-0.21,1.81c-0.02,0.14-0.05,0.28-0.08,0.42l-0.05,0.23
		c-0.07,0.35,0.16,0.69,0.51,0.76c0.04,0.01,0.09,0.01,0.13,0.01c0.3,0,0.58-0.21,0.64-0.52l0.04-0.21c0.04-0.18,0.08-0.36,0.1-0.55
		c0.07-0.61,0.14-1.22,0.21-1.82L17.22,62c0-0.01,0-0.01,0-0.02c0.06-0.33,0.09-0.66,0.07-0.99c-0.01-0.22-0.04-0.53,0.08-0.66
		c0.37-0.37,0.11-0.8,0.2-1.19c0.09-0.43,0.23-0.85,0.28-1.29c0.12-1.22,0.2-2.44,0.29-3.67c0.01-0.09-0.03-0.23,0.02-0.27
		c0.48-0.42,0.18-0.96,0.27-1.44c0.09-0.52,0.22-1.04,0.28-1.57c0.12-0.99,0.07-2.01,0.33-2.96c0.19-0.68,0.07-1.38,0.29-1.98
		c0.24-0.68,0.19-1.33,0.25-2c0.06-0.67,0.26-1.32,0.27-1.99c0.02-5.47,0.01-10.93,0.01-16.4C19.85,25.36,19.8,25.14,19.77,24.92z"
		/>
	<path class="st1" d="M38.15,25.15c-2.85-0.01-5.7-0.01-8.55,0c-0.18,0-0.37,0.03-0.53,0.08c-0.77,0.26-0.81,0.42-0.27,0.97
		c0.45,0.46,0.93,0.8,1.61,0.93c0.64,0.12,1.24,0.44,1.9,0.58c0.45,0.1,0.97,0.35,1.24,0.7c0.18,0.24,0.19,0.81-0.24,1.12
		c-0.02,0.02-0.02,0.1,0,0.13c0.5,0.66,0.13,1.43,0.3,2.12c0.14,0.58,0.23,1.23,0.81,1.63c0.26,0.18,0.37,0.26,0.61-0.11
		c0.7-1.06,1.61-2,1.99-3.26c1.08-0.96,1.1-2.47,1.9-3.57c0.1-0.13,0.08-0.34,0.09-0.39C39,25.39,38.76,25.15,38.15,25.15z"/>
	<path class="st1" d="M10.5,34.42c-0.66-0.14-1.34-0.25-2.01-0.28c-0.95-0.05-1.9-0.01-2.85-0.01c-1.09,0-2.18,0.01-3.27,0
		c-0.38,0-0.73,0-1.02,0.28c-0.11,0.11-0.31,0.18-0.33,0.3c-0.04,0.16,0.01,0.37,0.1,0.51c0.32,0.46,0.82,0.71,1.33,0.87
		c1,0.32,2.03,0.55,2.96,1.09c0.64,0.37,0.94,0.59,0.67,1.04c-0.26,0.42-0.26,0.65-0.02,1.09c0.08,0.15,0.12,0.34,0.14,0.54
		c-0.18,0.85-0.57,1.05-1.1,1.09c-0.36,0.02-0.63,0.33-0.61,0.68c0.02,0.34,0.31,0.6,0.65,0.6c0.01,0,0.03,0,0.04,0
		c0.78-0.05,1.74-0.4,2.17-1.69c0.27-0.41,0.52-0.82,0.8-1.21c0.87-1.23,1.74-2.46,2.61-3.69C11.14,35.09,11.04,34.54,10.5,34.42z"
		/>
</g>
<g id="J" class="st0">
	<path class="st1" d="M15.73,44.89c-2.19,0.24-4.34-0.4-6.52-0.34c-0.06,0-0.11,0-0.17,0c-0.68,0.01-1.38-0.08-2.02,0.08
		c-0.34,0.09,0.02,0.75-0.35,1.04c0,0,0,0-0.01,0L5.47,46c-0.41,0.12-0.65,0.55-0.54,0.96c0.1,0.34,0.41,0.57,0.75,0.57
		c0.07,0,0.14-0.01,0.21-0.03l0.78-0.22c0.02,0.01,0.05,0.02,0.07,0.03c0.7,0.36,1.26,0.97,2.11,1.1c0.38,0.06,0.81,0.38,1.05,0.71
		c0.29,0.41-0.17,0.79-0.27,1.19c-0.07,0.28-0.18,0.72,0.41,0.7c0.08,0,0.24,0.11,0.24,0.18c0.08,0.77,0.12,1.72-0.52,2.1
		c-0.46,0.27-0.51,0.47-0.49,0.84C9.39,56,9.1,57.89,9.34,59.75c0,0.06,0,0.11,0,0.17c-0.02,0.51-0.04,1.04,0.05,1.58
		c0.02,0.14-0.02,0.33-0.07,0.55c-0.1,0.43-0.24,1.01,0.05,1.66c-0.01,0.06-0.03,0.16-0.05,0.24c-0.1,0.38-0.26,1.01,0.18,1.62
		c0.15,0.21,0.39,0.33,0.64,0.33c0.16,0,0.31-0.05,0.45-0.15c0.35-0.25,0.43-0.73,0.18-1.08c-0.01-0.05,0.03-0.23,0.06-0.33
		c0.08-0.33,0.2-0.77-0.03-1.24c-0.08-0.16-0.05-0.32,0.03-0.68c0.08-0.32,0.17-0.72,0.09-1.18c-0.07-0.37-0.05-0.79-0.03-1.24
		c0-0.04,0-0.08,0-0.12c0.12-0.18,0.3-0.33,0.61-0.39c0.4-0.09,0.95-0.21,1.12-0.49c0.2-0.34,0.06-0.87,0.06-1.32
		c0-0.11-0.05-0.27,0.01-0.33c0.74-0.9,0.26-1.72-0.15-2.55c-0.26-0.53-0.06-1.05,0.49-1.02c1.07,0.07,1.16-0.6,1.37-1.35
		c0.31-1.08,0.48-2.19,0.75-3.27c0.31-1.22,0.4-2.51,0.93-3.68C16.19,45.22,16.17,44.84,15.73,44.89z"/>
	<path class="st1" d="M38.73,58.66c-0.1-0.62-0.35-1.02-0.77-1.39c-0.41-0.37-0.93-0.71-0.13-1.21c0.1-0.06,0.18-0.38,0.13-0.43
		c-0.62-0.56-0.22-1.28-0.33-1.91c-0.14-0.8-0.3-1.56-0.95-2.16c-0.43-0.4-0.79-0.9-1.09-1.41c-0.42-0.72-0.68-1.54-1.08-2.26
		c-0.09-0.17-0.18-0.34-0.25-0.51c-0.26-0.9-0.18-1.88-0.09-2.74l0.01-0.13c0.01-0.11,0.02-0.22,0.03-0.32
		c0.15-0.47,0.16-1.1-0.06-1.47c-0.06-0.11-0.11-0.2-0.15-0.3c-0.18-0.55-0.03-1.07,0.25-1.83c0.05-0.06,0.09-0.12,0.14-0.18
		c0.05-0.01,0.11-0.02,0.15-0.03c0.42-0.1,0.67-0.53,0.57-0.94c-0.08-0.33-0.36-0.55-0.68-0.58c-0.06-0.08-0.12-0.16-0.17-0.25
		c-0.17-0.61-0.16-1.28-0.16-1.97l0-0.41c0-0.43-0.35-0.78-0.78-0.78c0,0,0,0,0,0c-0.43,0-0.78,0.35-0.78,0.78l0,0.39
		c-0.01,0.81-0.02,1.71,0.26,2.59c0,0.11,0,0.22-0.01,0.34c-0.01,0.21-0.03,0.41-0.06,0.62c-0.27,0.74-0.55,1.62-0.28,2.6
		c0,0.33,0.06,0.66,0.21,0.97c-0.01,0.19-0.03,0.39-0.05,0.61l-0.02,0.13c-0.12,1.06-0.2,2.27,0.18,3.47
		c-0.06,0.34-0.14,0.68-0.29,1.02c-0.08,0.19-0.1,0.5,0,0.67c0.55,0.93,0.28,1.94,0.32,2.92c0.03,0.62-0.03,1.21,0.61,1.63
		c0.54,0.36,0.59,0.79,0.17,1.41c-0.28,0.42-0.43,0.72-0.99,0.9c-1.05,0.32-2.06,0.8-3.01,1.36c-0.57,0.33-1.01,0.91-1.44,1.43
		c-0.14,0.17-0.11,0.54-0.04,0.77c0.03,0.1,0.4,0.17,0.6,0.13c0.75-0.13,1.46-0.4,2.25-0.35c1.02,0.07,2.05,0.02,3.07,0.02
		c1.31,0,2.62,0.01,3.92,0C38.86,59.82,38.88,59.59,38.73,58.66z"/>
	<path class="st1" d="M16.78,33.65c-0.41,0.05-0.37-0.29-0.25-0.57c0.05-0.12,0.19-0.32,0.15-0.35c-0.7-0.67-0.97-1.7-1.97-2.14
		c-1.61-0.71-2.67-1.99-3.4-3.56c-0.38-0.82-1.06-1.4-1.69-2.01c-0.1-0.1-0.32-0.21-0.42-0.17c-0.49,0.18-1.05,0.33-1.42,0.66
		c-0.97,0.86-1.88,1.81-2.78,2.74c-0.29,0.3-0.31,0.59,0.22,0.67c0.1,0.01,0.22,0.07,0.27,0.15c0.29,0.38,0.49,0.96,0.87,1.12
		c0.36,0.15,0.9-0.13,1.51-0.24c0.81,0.09,1.5,0.72,1.95,1.43c0.36,0.58,0.77,1.07,1.25,1.5c1.53,1.34,3.09,2.66,4.66,3.96
		c0.68,0.56,1.46,0.27,1.76-0.6c0.14-0.39,0.24-0.83,0.48-1.15c0.27-0.35,0.25-0.57-0.06-0.84C17.57,33.97,17.34,33.58,16.78,33.65z
		"/>
	<path class="st1" d="M5.16,46.07c0.01-0.16,0.01-0.33,0.01-0.5c0-0.11,0.03-0.23-0.01-0.33c-0.05-0.13-0.13-0.27-0.24-0.35
		c-0.06-0.05-0.26-0.02-0.3,0.04c-0.08,0.12-0.16,0.31-0.13,0.43c0.07,0.24,0.2,0.47,0.33,0.69c0.04,0.07,0.14,0.1,0.22,0.13
		C5.08,46.19,5.16,46.11,5.16,46.07z"/>
	<path class="st1" d="M19.29,39.45c-0.15,0-0.29,0.1-0.43,0.15c0.23,0.2,0.45,0.4,0.74,0.67c0.13-0.24,0.25-0.35,0.26-0.48
		C19.89,39.35,19.54,39.44,19.29,39.45z"/>
	<path class="st1" d="M5.28,29.94c-0.27-0.33-0.74-0.39-1.08-0.12c-0.04,0-0.18-0.03-0.26-0.06c-0.25-0.07-0.59-0.16-0.98-0.08
		c-0.41,0.09-0.8,0.23-1.17,0.36c-0.15,0.05-0.3,0.11-0.45,0.16c-0.41,0.14-0.63,0.58-0.49,0.98c0.11,0.33,0.41,0.53,0.74,0.53
		c0.08,0,0.16-0.01,0.25-0.04c0.16-0.05,0.32-0.11,0.48-0.17c0.34-0.12,0.66-0.24,0.96-0.31c0.04,0,0.17,0.03,0.25,0.06
		c0.35,0.1,1,0.27,1.62-0.23C5.48,30.77,5.55,30.28,5.28,29.94z"/>
</g>
<g id="K" class="st0">
	<path class="st1" d="M35.2,44.55c-0.06-0.57-0.01-1.15-0.01-1.72c0-0.7,0.01-1.41,0-2.11c-0.01-0.5-1.04-1.5-1.55-1.47
		c-2.26,0.14-4.53-0.3-6.79,0.34c-1.11,0.32-2.34,0.24-3.49,0.44c-0.47,0.08-1.14,0.13-1.28,0.76c-0.26,1.18-0.97,1.69-2.14,1.99
		c-0.45,0.12-0.91,0.21-1.38,0.3c-2.85,0.3-5.98,0.45-9.82,0.48c-0.85,0.01-1.69,0.12-2.49,0.23c-0.36,0.05-0.71,0.1-1.07,0.14
		c-0.48,0.05-0.83,0.49-0.78,0.97c0.05,0.45,0.43,0.78,0.87,0.78c0.03,0,0.06,0,0.1-0.01c0.37-0.04,0.75-0.09,1.12-0.14
		c0.79-0.11,1.53-0.21,2.26-0.22c4.95-0.03,8.74-0.27,12.28-0.77c1.69-0.03,3.41,0.12,5.1,0.02c1.21-0.07,2.13,0.46,3.12,0.89
		c0.55,0.23,1.03,0.66,1.48,1.07c0.58,0.54,0.98,0.4,1.63,0.01c0.66-0.4,1.1-1.26,2.01-1.15C35.08,45.48,35.27,45.23,35.2,44.55z"/>
	<path class="st1" d="M19.16,51.51c-1.15,0.05-2.3,0.01-3.46,0.01c-0.51,0-1.02,0-1.54,0c-0.83,0-1.69-0.11-2.49,0.04
		c-0.55,0.1-1.03,0.58-1.55,0.88c-0.15,0.09-0.33,0.24-0.48,0.22c-0.64-0.11-0.9,0.39-1.23,0.74c-0.15,0.15-0.17,0.42-0.24,0.64
		c0.17,0.06,0.34,0.17,0.5,0.16c1-0.02,1.9,0.2,2.77,0.76c0.86,0.55,1.28,1.69,0.71,2.32c-0.68,0.76-0.8,1.87-0.13,2.47
		c0.64,0.57,0.85,1.2,0.76,1.99c-0.05,0.41,0.13,0.55,0.54,0.55c0.22,0,0.47,0.11,0.66,0.23c0.32,0.21,0.52,0.23,0.73-0.15
		c1.23-2.23,2.54-4.42,3.69-6.69c0.56-1.09,1.1-2.23,1.31-3.47C19.81,51.8,19.76,51.49,19.16,51.51z"/>
	<path class="st1" d="M13.48,64.86L13.48,64.86C13.5,64.89,13.5,64.9,13.48,64.86z"/>
	<path class="st1" d="M13.32,64.57c-0.18,0.12-0.45,0.2-0.51,0.36c-0.15,0.46-0.43,0.65-0.89,0.82c-0.67,0.25,0.37,0.48,0.1,0.79
		c0.18,0.11,0.49,0.35,0.53,0.31c0.47-0.46,1.23-0.78,0.93-1.99C13.46,64.82,13.39,64.7,13.32,64.57z"/>
	<path class="st1" d="M34.65,33.45c0.01,0.01,0.08-0.07,0.12-0.12c-0.06-0.07-0.12-0.15-0.18-0.22c-0.06,0.06-0.11,0.11-0.17,0.17
		C34.49,33.33,34.56,33.4,34.65,33.45z"/>
	<path class="st1" d="M7.2,29.95c0.06,0,0.11-0.01,0.17-0.02l0.28-0.05c0.25-0.04,0.51-0.09,0.75-0.16c0.17-0.05,0.36-0.07,0.54-0.1
		c0.38-0.06,0.85-0.13,1.3-0.36c0.92,0,1.83,0,2.75,0c0.3,0.05,0.61,0.1,0.95,0.11c1.1,0.01,2.19,0.01,3.29,0.01
		c1.09,0,2.18,0,3.27,0.01c0.24,0,0.5,0.05,0.78,0.1c0.15,0.03,0.3,0.05,0.46,0.08c0.04,0.01,0.08,0.01,0.12,0.01
		c0.13,0,0.24-0.03,0.35-0.08c1.71,0.27,2.9,0.21,5.11-0.2c0.31-0.06,0.72,0.12,1.02,0.3c1.09,0.65,2.15,1.34,3.21,2.02
		c0.76,0.49,1.51,1.01,2.28,1.48c0.14,0.09,0.38,0.01,0.57,0.01c0-0.19,0.07-0.42-0.02-0.57c-0.12-0.21-0.38-0.35-0.52-0.56
		c-0.45-0.65-0.16-1.86,0.56-1.89c0.85-0.04,0.77-0.42,0.75-0.95c-0.01-0.51,0-1.02,0-1.53c0-0.77,0.02-1.54-0.01-2.3
		c-0.01-0.51-0.86-1.47-1.01-1.3c-0.78,0.87-1.36-0.23-2.07-0.14c-0.98,0.13-1.95,0.1-2.94,0.35c-0.86,0.22-1.82,0.28-2.73,0.38
		c-0.98,0.11-1.95,0.32-2.92,0.41c-0.64,0.06-0.65,0.3-0.7,0.8c-0.11,1.16-0.61,1.74-1.61,1.87c-0.22-0.03-0.44-0.06-0.68-0.06
		c-1.1-0.01-2.19-0.01-3.29-0.01c-1.09,0-2.18,0-3.27-0.01c-0.23,0-0.5-0.05-0.78-0.1c-0.04-0.01-0.07-0.01-0.11-0.02
		c-0.1-0.08-0.18-0.18-0.2-0.3c-0.1-0.67-0.46-0.62-0.91-0.61c-0.58,0.01-1.17,0.06-1.73-0.01c-0.8-0.1-1.02,0.23-0.91,0.95
		c0.01,0.08,0.02,0.16,0.01,0.23c-0.15,0.06-0.34,0.09-0.63,0.14c-0.26,0.04-0.53,0.08-0.78,0.15c-0.18,0.05-0.38,0.09-0.57,0.12
		l-0.32,0.06c-0.48,0.09-0.79,0.56-0.69,1.03C6.42,29.66,6.79,29.95,7.2,29.95z"/>
</g>
<g id="L" class="st0">
	<path class="st1" d="M38.61,46.49c-0.85-0.74-1.7-1.49-2.54-2.24c-0.55-0.5-1.03-1.08-1.72-1.44c-0.47-0.24-0.74-0.19-0.77,0.32
		c-0.03,0.48,0.02,0.96-0.01,1.44c-0.05,0.83-0.43,1.22-1.21,1.38c-0.25,0.05-0.56,0.16-0.71,0.35c-0.51,0.64-0.9,1.39-1.46,1.98
		c-1.62,1.68-3.21,3.41-5.11,4.78c-0.92,0.67-1.77,1.35-2.33,2.34c-0.07,0.13-0.35,0.29-0.39,0.26c-0.65-0.5-0.7,0.06-0.98,0.44
		c-0.38,0.52-0.87,1.02-1.42,1.34c-0.44,0.26-0.62,0.52-0.57,1.15c0.01,0.01,0.07,0.18,0.17,0.31c0.03,0.04,0.22,0.03,0.27-0.02
		c0.68-0.79,1.7-0.81,2.59-1.1c1.15-0.38,2.36-0.65,3.35-1.35c1.95-1.38,3.83-2.86,5.77-4.26c1.3-0.94,2.57-1.91,3.91-2.79
		c1.07-0.7,2.1-1.47,3.14-2.22C38.83,46.99,38.91,46.75,38.61,46.49z"/>
	<path class="st1" d="M21.1,41.77c0.34-0.24,0.68-0.46,1-0.72c0.33-0.27,0.61-0.61,0.95-0.86c1.46-1.11,2.99-2.15,4.4-3.32
		c0.96-0.8,2.02-1.42,3.02-2.16c0.73-0.54,1.48-1.07,2.24-1.58c0.36-0.24,0.08-0.39,0.02-0.63c-0.12-0.53-0.52-0.85-0.89-1.05
		c-0.77-0.43-1.28-1.1-1.91-1.66c-0.14-0.13-0.26-0.3-0.42-0.4c-0.14-0.08-0.38-0.15-0.48-0.09c-0.43,0.27-0.89,0.54-1.2,0.92
		c-0.3,0.37-0.37,0.92-0.66,1.3c-0.32,0.41-0.79,0.72-1.19,1.08c-0.07,0.06-0.15,0.13-0.2,0.2c-0.41,0.6-0.79,1.22-1.24,1.79
		c-0.44,0.56-0.99,1.03-1.49,1.53c-1.66,1.66-3.47,3.12-5.38,4.46c-0.57,0.4-0.64,0.66-0.63,1.66c0,0.11-0.01,0.2-0.03,0.28
		c-0.22,0.12-0.45,0.18-0.71,0.19c-0.02,0-0.04,0-0.06,0.01c-0.18-0.13-0.32-0.37-0.61-0.12c-0.13,0.11-0.24,0.22-0.36,0.33
		c-0.64,0.26-1.15,0.76-1.45,1.48c-0.14,0.34,0.01,0.72,0.35,0.87c0.08,0.04,0.17,0.05,0.26,0.05c0.26,0,0.5-0.15,0.61-0.4
		c0.12-0.28,0.28-0.48,0.47-0.63c0.21-0.09,0.43-0.16,0.64-0.23c0.06-0.01,0.11-0.02,0.18-0.03c0.58-0.02,1.04-0.18,1.42-0.41
		c0.15-0.04,0.3-0.08,0.45-0.12C19.33,43.19,20.18,42.42,21.1,41.77z"/>
	<path class="st1" d="M6.2,55.23c-0.35-0.26-0.81-0.38-1.21-0.56c-0.19,0.1-0.52,0.15-0.66,0.34c-0.79,1.1-2.15,1.48-3.07,2.42
		c-0.5,0.51-0.63,0.61-0.22,0.99c0.89,0.84,1.81,1.66,2.75,2.44c0.34,0.28,0.78,0.55,1.19,0.58c0.34,0.02,0.74-0.27,1.04-0.52
		c0.42-0.34,1.03-0.73,1.11-1.17c0.12-0.75,0.36-1.15,1.07-1.44c0.58-0.24,0.61-0.81,0.14-1.26C7.65,56.41,6.94,55.79,6.2,55.23z"/>
	<path class="st1" d="M5.25,50.19c0.4-0.14,0.76-0.21,1.06-0.37c0.23-0.13,0.47-0.36,0.17-0.67c-0.23-0.23-0.44-0.54-0.79-0.14
		C5.47,49.26,5.22,49.47,5,49.72c-0.04,0.05,0,0.21,0.05,0.29C5.11,50.11,5.23,50.17,5.25,50.19z"/>
</g>
<g id="M" class="st0">
	<path class="st1" d="M10.32,23.93c-2.38,0.02-4.76,0.02-7.13,0c-0.38,0-0.65,0.11-0.83,0.4c-0.08,0.14-0.09,0.49-0.01,0.54
		c0.61,0.39,1.22,0.78,1.88,1.06c1.4,0.6,1.64,0.91,1.65,2.38c0,5.96,0,11.92,0,17.89c0,3.58,0,7.16,0,10.75l-0.02,0.12
		c-0.25,1.49-0.51,3.03-0.23,4.63c0,0.03,0,0.05,0,0.08l0,0.14l0,0.13c0,0.04,0.01,0.07,0,0.11c-0.08,0.65-0.16,1.29-0.24,1.94
		L5.3,64.84c-0.05,0.42,0.24,0.8,0.66,0.86c0.03,0,0.06,0.01,0.1,0.01c0.38,0,0.7-0.28,0.75-0.67l0.09-0.73
		c0.08-0.65,0.16-1.3,0.24-1.95c0.01-0.11,0.01-0.23,0.01-0.34l0-0.15c0-0.1,0.01-0.24-0.02-0.39c-0.23-1.34-0.01-2.68,0.22-4.09
		c0.24-0.46,0.55-0.88,0.95-1.23c1.19,0.11,0.87-0.77,0.9-1.4c0.02-0.39-0.13-0.85,0.03-1.16c0.62-1.25,0.36-2.7,0.97-3.94
		c-0.15-1.86,0.29-3.7,0.31-5.55c0.07-5.46,0.02-10.92,0.02-16.38c0-0.39-0.15-0.9,0.03-1.15c0.49-0.67,0.21-1.38,0.3-2.06
		C10.92,24.08,10.77,23.93,10.32,23.93z"/>
	<path class="st1" d="M25.5,57.89c-0.22-0.49,0.34-0.38,0.52-0.58c0.14-0.16,0.12-0.51,0.09-0.76c-0.04-0.25-0.24-0.46-0.29-0.71
		c-0.24-1.24-0.39-2.5-0.7-3.73c-0.16-0.62-0.59-1.16-0.9-1.74c-0.89,0.12-1.13-0.75-1.69-1.13c-0.28-0.19-0.42-0.42-0.51-0.68
		c-0.02-0.16-0.03-0.32-0.05-0.48c-0.09-0.78-0.18-1.51-0.19-2.25c-0.01-0.44,0.03-0.9,0.08-1.39c0.07-0.78,0.14-1.59,0-2.4
		c-0.16-0.92,0-1.43,0.63-1.96c0.32-0.27,0.36-0.76,0.09-1.08c-0.27-0.32-0.74-0.37-1.07-0.09c-0.2,0.17-0.37,0.35-0.52,0.53
		c-0.15,0.1-0.29,0.22-0.4,0.35c-0.1,0.12-0.11,0.32-0.1,0.53c-0.22,0.58-0.26,1.24-0.12,2c0.11,0.61,0.05,1.28-0.02,1.99
		c-0.05,0.51-0.09,1.03-0.08,1.56c0.02,0.81,0.11,1.62,0.2,2.4c0.01,0.11,0.02,0.22,0.04,0.34c0,1.23,0,2.45,0.01,3.68
		c0,0.69-0.37,1.63,0.83,1.81c0.07,0.01,0.13,0.27,0.15,0.42c0.06,0.59-0.1,0.93-0.72,1.25c-1.18,0.63-2.5,0.98-3.58,1.79
		c-0.01,0-0.01,0.01-0.02,0.01c-0.46,0.12-0.87,0.33-1.24,0.52c-0.18,0.1-0.36,0.19-0.55,0.28c-0.38,0.17-0.56,0.62-0.39,1.01
		c0.12,0.29,0.4,0.46,0.69,0.46c0.1,0,0.2-0.02,0.3-0.06c0.22-0.1,0.44-0.21,0.66-0.33c0.32-0.17,0.61-0.31,0.89-0.39
		c0.18,0,0.35,0.01,0.53,0.01c1.16-0.01,2.32,0,3.48,0c1.49,0,2.99,0.01,4.48-0.01c0.15,0,0.43-0.19,0.43-0.3
		c0-0.23-0.07-0.54-0.23-0.67C26.04,57.95,25.56,58.03,25.5,57.89z"/>
	<path class="st1" d="M37.24,64.06c-0.19-0.42-0.25-0.9-0.36-1.35c-0.04-0.15-0.09-0.3-0.11-0.45c-0.12-0.73-0.25-1.46-0.33-2.2
		c-0.09-0.82-0.69-1.39-0.94-2.11c-0.17-0.5-0.1-0.97-0.77-1.26c-0.53-0.22-1.01-0.25-1.54-0.29c-0.4-0.03-0.35,0.24-0.44,0.51
		c-0.16,0.48-0.36,1.21-0.71,1.32c-0.7,0.22-0.58,0.65-0.6,1.11c-0.02,0.62,0.26,1.1,0.64,1.58c0.64,0.81,0.57,1.02-0.44,1.5
		c-0.78,0.38-1.63,0.63-2.37,1.07c-0.37,0.22-1.05,0.35-0.85,1.12c0.02,0.07-0.24,0.54-0.82,0.24c-0.56-0.29-0.59,0.62-0.79,1.04
		c-0.08,0.17-0.56,0.3-0.13,0.6c0.13,0.09,0.24,0.23,0.38,0.28c0.15,0.05,0.33,0.02,0.49,0.01c0.73-0.06,1.45-0.06,2.2-0.27
		c0.97-0.27,2.08-0.07,3.13-0.07c0.66,0,1.33,0.01,1.99,0c0.49-0.01,1.04,0.09,1.44-0.12c0.27-0.14,0.45-0.74,0.42-1.11
		C36.68,64.68,37.52,64.67,37.24,64.06z"/>
	<path class="st1" d="M20.88,36.7c0.21,0.29,0.24,0.36,0.23,0.43c-0.19,0.72,0.53,0.95,0.8,1.03l0.17,0.05
		c0.08,0.03,0.16,0.04,0.24,0.04c0.32,0,0.61-0.2,0.72-0.53c0.13-0.39-0.07-0.81-0.45-0.96c-0.08-0.42-0.32-0.74-0.49-0.98
		c-0.1-0.13-0.19-0.27-0.22-0.36c-0.12-0.41-0.53-0.64-0.94-0.53c-0.4,0.12-0.63,0.54-0.52,0.95C20.53,36.22,20.72,36.49,20.88,36.7
		z"/>
</g>
<g id="N" class="st0">
	<path class="st1" d="M37.17,57.55c-0.14,0.05-0.27,0.3-0.38,0.29c-1.39-0.21-2.7,0.44-4.08,0.35c-1.71-0.11-3.37,0.58-5.09,0.35
		c-0.13-0.02-0.28,0.13-0.43,0.18c-1.16,0.37-2.36,0.55-3.55,0.78c-1.38,0.27-2.84,0.16-4.23,0.41c-0.9,0.16-1.83,0.28-2.63,1.01
		c-0.66,0.61-1.69,0.9-2.7,0.51c-0.19-0.07-0.5-0.24-0.56-0.18c-0.75,0.75-1.17,0.11-1.65-0.33c-0.13-0.12-0.37-0.3-0.46-0.26
		c-1.44,0.67-3.06-0.24-4.51,0.53c-0.35,0.19-0.88,0.03-1.33,0.03c-0.39,0-0.81,0.08-1.18-0.02c-0.68-0.19-0.3,0.79-0.88,0.7
		c-0.38-0.06-0.79-0.04-1.18,0c-0.16,0.02-0.37,0.16-0.45,0.3c-0.21,0.36-0.6,0.79-0.31,1.17c0.16,0.21,0.7,0.17,1.07,0.19
		c0.5,0.03,1.01,0.01,1.52,0.01c0.84,0,1.69,0,2.53,0c0.9,0,1.8,0,2.7,0c0.84,0,1.69,0,2.53,0c0.84,0,1.69,0,2.53,0
		c0.9,0,1.8,0,2.7,0c0.84,0,1.69,0,2.53,0c0.9,0,1.8,0,2.7,0c0.84,0,1.69,0,2.53,0c0.84,0,1.69,0,2.53,0c0.9,0,1.81,0.09,2.7-0.03
		c0.77-0.1,1.5-0.19,2.26,0.01c0.25,0.06,0.62,0.06,0.79-0.08c0.69-0.58,1.05-0.07,1.54,0.31c0.48,0.38,0.41,1.12,0.74,1.34
		c0.46,0.3,0.95,0.58,1.17,1.04c0.14,0.29,0.22,0.38,0.53,0.45c0.26,0.06,0.52,0.6,0.52-0.15c0-1.4,0-2.79,0-4.19
		c0-0.67,0-1.34,0-2.01c0-0.78-0.01-1.57,0-2.35C37.7,57.52,37.47,57.45,37.17,57.55z"/>
	<path class="st1" d="M15.93,30.29c0.67,0.47,1.45,0.78,2.23,1.19c0.62-0.26,1.17-0.43,1.66-0.71c0.55-0.32,0.99-0.92,1.57-1.08
		c0.74-0.2,0.17-0.34,0.11-0.57c-0.09-0.35,0.4-0.86,0.57-0.7c0.88,0.87,0.84-1.19,1.63-0.47c-0.02-0.12,0.01-0.27-0.06-0.35
		c-1.14-1.42-2.77-2.23-4.18-3.31c-0.87-0.67-1.84-0.46-2.67,0.14c-1.09,0.78-2.14,1.63-3.18,2.48c-0.33,0.27-0.58,0.62-0.86,0.94
		c0.31,0.2,0.64,0.37,0.93,0.6C14.43,29.04,15.13,29.74,15.93,30.29z"/>
	<path class="st1" d="M38.04,52.63l-0.36-0.71c0.01-2.12,0-4.23,0.01-6.35c0-0.34-0.08-0.52-0.46-0.49
		c-1.47,0.12-2.93-0.03-4.43,0.26c-1.51,0.3-3.08,0.41-4.59,0.75c-1.44,0.32-2.92,0.57-4,1.76c-0.17,0.19-0.77,0.32-0.86,0.22
		c-0.4-0.46-0.72-0.32-1.08-0.01c-0.38-0.51-0.93-0.27-1.4-0.28c-1.63-0.03-3.26-0.01-4.89-0.01c-1.91,0-3.82,0-5.73,0.01
		c-0.2,0-0.49,0.04-0.59,0.17c-0.18,0.24-0.4,0.61-0.33,0.84c0.13,0.44,0.41,0.86,0.72,1.2c0.14,0.15,0.51,0.13,0.77,0.13
		c6.35,0.01,12.7,0,19.05,0c0.22,0,0.45,0.02,0.67,0c1.02-0.12,1.4-0.06,2.28,0.34c1.18,0.53,2.28,1.21,3.35,1.93l0.47,0.94
		c0.14,0.27,0.41,0.42,0.69,0.42c0.12,0,0.23-0.03,0.35-0.08C38.08,53.48,38.23,53.01,38.04,52.63z"/>
</g>
<g id="O" class="st0">
	<path class="st1" d="M24.33,48.1c-1.21-1.04-2.39-2.11-3.59-3.15c-0.69-0.6-1.41-1.17-2.15-1.72c-0.35-0.26-0.76-0.47-1.16-0.63
		c-0.49-0.2-0.84,0.11-0.91,0.63c-0.19,1.39,0.45,2.51,1.2,3.57c0.24,0.34,0.59,0.55,0.04,0.87c0.36,1.15-0.5,1.71-1.15,2.37
		c-0.6,0.61-1.15,1.23-1.62,1.96c-0.63,0.99-1.44,1.89-2.29,2.71c-1.48,1.44-2.93,2.97-4.62,4.13c-1.55,1.07-2.64,2.69-4.49,3.41
		c-0.81,0.32-1.46,1.22-1.99,1.99c-0.15,0.22,0.41,0.89,0.54,1.38c0.04,0.15-0.27,0.39-0.38,0.53c0.05,0.32,0.08,0.51,0.12,0.7
		c0.2-0.09,0.39-0.22,0.59-0.27c0.57-0.12,0.81-0.44,1.01-1.01c0.26-0.71,0.77-0.74,1.37-0.22C5.22,65.7,5.41,65.83,6,65.53
		c1.39-0.72,2.56-1.72,3.85-2.55c2.5-1.62,4.8-3.51,7.21-5.24c2.14-1.54,4.32-3.05,6.48-4.56c1.11-0.78,2.21-1.55,3.32-2.33
		c0.23-0.16,0.37-0.32,0.05-0.58C26.04,49.55,25.18,48.83,24.33,48.1z"/>
	<path class="st1" d="M37.94,25.1c-0.4-0.19-1.13-0.28-1.17-0.5c-0.16-0.92-0.79-0.73-1.35-0.73c-1.57-0.01-3.13,0-4.7,0
		c-1.64,0-3.27,0.03-4.91-0.02c-0.56-0.01-0.99,0.22-1.48,0.39c-0.59,0.21-0.6,0.48-0.25,0.82c1,0.96,2.13,1.68,3.6,1.65
		c0.68-0.01,1.37-0.04,2.04,0.01c0.3,0.02,0.63,0.17,0.86,0.36c0.83,0.67,0.83,0.71,0.3,1.81c-0.55,1.13-1.37,2.2-1.62,3.38
		c-0.28,1.36-0.04,2.83-0.08,4.25c-0.03,1.13,0.31,2.14,0.82,3.12c0.33,0.63,0.41,0.65,0.93,0.18c0.46-0.42,0.85-0.83,0.73-1.54
		c-0.04-0.21,0.23-0.45,0.27-0.69c0.3-1.5,1.36-2.57,2.09-3.83c1.54-2.65,2.68-5.52,3.97-8.31C38.07,25.37,38.02,25.14,37.94,25.1z"
		/>
	<path class="st1" d="M3.53,25.78c0.44,0.23,0.92,0.4,1.41,0.52c1.24,0.3,2.49,0.54,3.73,0.84c0.19,0.05,0.42,0.26,0.47,0.44
		c0.08,0.32,0.08,0.68,0.01,1.01c-0.19,0.93,0.48,1.48,1.07,1.74c0.52,0.23,1.04,0.71,1.96,0.25c1.09-0.55,1.74-1.49,2.68-2.14
		c0.13-0.09,0.79-0.75-0.05-1.24c-0.49-0.28-0.3-1.06,0.23-1.21c0.37-0.11,0.8-0.02,1.19-0.1c0.12-0.02,0.32-0.33,0.28-0.4
		c-0.26-0.51-0.51-1.03-0.89-1.45c-0.17-0.18-0.61-0.15-0.93-0.16c-1.63-0.01-3.26-0.01-4.89-0.01c-0.34,0-0.68,0-1.02,0
		c-1.56,0-3.13,0.02-4.69-0.01c-0.58-0.01-0.89,0.31-1.05,0.73C2.87,25.06,3.08,25.54,3.53,25.78z"/>
</g>
<g id="P">
	<path d="M37.83,27.14c-2.86,0.07-5.73,0.06-8.6,0c-0.84-0.02-1.79,0.41-2.52-0.4c-0.59,0.58-1.17,1.16-1.76,1.74
		c-0.04,0.04-0.15,0-0.21,0.04c-0.64,0.43-0.64,0.59-0.13,1.05c0.96,0.85,2.25,0.78,3.36,1.14c1.65,0.54,1.78,0.4,1.69,2.09
		c-0.1,1.8-0.36,3.59-0.55,5.39c0.04,0,0.08,0.01,0.12,0.01c0,0.82-0.01,1.64,0,2.46c0.01,0.77,0.42,1.11,1.06,0.85
		c0.65-0.26,1.23-0.71,1.9-0.86c1.01-0.23,0.81-1.17,1.24-1.72c0.05-0.06,0.11-0.1,0.16-0.16c1.75-2.13,2.76-4.67,3.99-7.09
		c0.12-0.24,0.26-0.52,0.26-0.78c-0.01-0.63-1.24-1.76,0.7-1.52c0.06,0.01,0.2-0.22,0.21-0.34c0.03-0.29-0.02-0.6,0.02-0.89
		C38.87,27.43,38.71,27.12,37.83,27.14z"/>
	<path d="M17.6,58.13c-1.94-1.33-3.87-2.67-5.81-3.99c-0.4-0.27-0.86-0.45-1.37-0.71c-0.79,0.36-1.56,0.57-2.17,1.01
		c-1.53,1.12-3.15,2.13-4.34,3.67c-0.62,0.79-0.75,1.09-0.08,1.61c0.63,0.48,1.25,0.97,1.9,1.42c1.21,0.86,2.44,1.68,3.74,2.41
		c0.9,0.5,1.53,0.61,2.36-0.09c0.86-0.73,1.9-1.25,2.8-1.93c1.04-0.8,2.03-1.67,3.02-2.53C18,58.72,18,58.41,17.6,58.13z"/>
	<path d="M6.19,29.99c0.59-0.38,1.25-0.2,1.5,0.4c0.2,0.47,0.24,1.2,0,1.63c-0.67,1.22-1.06,2.17-0.49,2.7
		c0.8,0.74,0.62,1.57,0.7,2.43c0.07,0.78-0.34,0.85-0.94,0.8c-0.12-0.01-0.25,0.1-0.38,0.16c0.12,0.16,0.26,0.31,0.37,0.48
		c0.35,0.52,0.57-0.32,0.79-0.1c0.92,0.94,1.53-0.09,2-0.46c0.56-0.45,1.39-1.16,0.45-2.14c-0.19-0.19-0.19-0.84,0.28-1.19
		c0.47-0.36,0.91-1.21,1.29-1.17c1.37,0.15,1.39-1.07,2.05-1.63c0.73-0.61,0.07-0.94-0.25-1.09c-0.34-0.15-0.8-0.11-0.64-0.61
		c0.05-0.15,0.15-0.3,0.27-0.44l0.1,0c0.46,0,0.92-0.01,1.37,0.01c0.03,0,0.05,0,0.08,0c0.17,0,0.37-0.02,0.57-0.09
		c0.28-0.03,0.49-0.14,0.61-0.38c0.24-0.26,0.43-0.64,0.47-1.23l0.01-0.13c0.06-0.56-0.35-1.07-0.92-1.13
		c-0.55-0.05-1.06,0.34-1.14,0.89c-0.31-0.01-0.63,0-0.94,0c-0.22-0.64-0.72-0.54-1.24-0.54c-1.29,0-2.57,0-3.86,0
		c-1.44,0-2.87-0.01-4.31,0.01c-0.35,0-0.87-0.02-1.03,0.19c-0.55,0.67-1.21,0.79-1.99,0.72c-0.05,0-0.22,0.29-0.18,0.36
		c0.29,0.48,0.63,1.34,0.95,1.34C3.24,29.76,4.66,30.99,6.19,29.99z"/>
	<path d="M29.71,45.11c0.15,0.35,0.5,0.67,0.84,0.89c0.23,0.15,1-1.01,0.94-1.59c-0.26-0.18-0.58-0.53-0.96-0.6
		C30.09,43.72,29.51,44.61,29.71,45.11z"/>
</g>
<g id="Q" class="st0">
	<path class="st1" d="M28.71,47.4c-1.17-1.05-2.14-2.31-3.51-3.13c-0.35-0.21-0.42-0.8-0.99-0.67c0.15,0.35,0.29,0.7,0.44,1.04
		c0.25,0.57,0.38,1.15-0.09,1.65c-0.22,0.24-0.59,0.35-0.85,0.56c-0.32,0.26-0.09,0.71-0.39,1.08c-0.23,0.28-0.48,0.61-0.72,0.91
		c-0.28,0.35-0.62,0.66-0.89,1.02c-1.12,1.45-2.16,2.96-3.52,4.23c-0.58,0.54-1.24,1-1.85,1.52c-0.96,0.82-1.9,1.66-2.85,2.49
		c-0.5-0.02-0.52,0.48-0.69,0.76c-0.01,0-0.01,0-0.02,0c-1.27,0.34-1.93,1.07-1.96,2.16c-0.03,0.02-0.06,0.04-0.08,0.06
		c-0.11,0.08-0.21,0.17-0.3,0.25c-0.28,0.27-0.28,0.72,0,0.99c0.14,0.14,0.32,0.21,0.5,0.21c0.18,0,0.36-0.07,0.5-0.2
		c0.05-0.05,0.11-0.09,0.17-0.14c0.26-0.2,0.66-0.51,0.63-1c-0.02-0.41,0.07-0.66,0.55-0.85c0.02,0.01,0.04,0.02,0.06,0.03
		c0.18,0.14,0.42,0.4,0.4,0.58c-0.08,0.85,0.37,0.27,0.64,0.29c0.57,0.05,0.95-0.15,1.35-0.54c0.41-0.4,0.96-0.67,1.43-1.01
		c1.04-0.74,2.1-1.46,3.09-2.26c1.41-1.12,2.72-2.36,4.17-3.44c1.92-1.43,3.94-2.73,5.89-4.12c0.28-0.2,0.44-0.57,0.67-0.89
		c-0.11-0.15-0.18-0.29-0.29-0.38C29.73,48.19,29.19,47.83,28.71,47.4z"/>
	<path class="st1" d="M37.97,28.44c-1.97-0.01-3.94-0.01-5.92,0c-0.6,0-1.18-0.08-1.69,0.48c-0.05,0.06-0.12,0.1-0.2,0.13
		C30.08,29.03,30,29.01,29.93,29c-0.11-0.02-0.29-0.05-0.31-0.06c0,0-0.01-0.03-0.02-0.1c-0.03-0.39-0.37-0.68-0.77-0.64
		c-0.39,0.03-0.68,0.37-0.65,0.76c0.1,1.17,1.07,1.35,1.49,1.42c0.04,0.01,0.07,0.01,0.1,0.02c0.56,0.35,1.12,0.69,1.7,1.02
		c0.19,0.11,0.48,0.07,0.72,0.04c0.22-0.03,0.43-0.14,0.64-0.21c0.03,0.24,0.1,0.48,0.1,0.72c0.01,1.99,0,3.98,0,5.96
		c0,2.09-0.04,4.18,0.02,6.27c0.02,0.63,0.19,1.21,0.54,1.68c0.11,0.22,0.24,0.41,0.36,0.56c0.12,0.16,0.23,0.3,0.27,0.43
		c0.1,0.3,0.38,0.49,0.68,0.49c0.07,0,0.14-0.01,0.22-0.03c0.37-0.12,0.58-0.51,0.46-0.88c-0.11-0.35-0.31-0.61-0.48-0.84
		c-0.08-0.1-0.14-0.2-0.19-0.28c0.01-0.17,0.1-0.35,0.3-0.52c0.05-0.04,0.04-0.23-0.01-0.29c-0.59-0.67-0.19-1.45-0.29-2.18
		c-0.06-0.41,0.26-0.74,0.61-0.7c0.68,0.08,0.66-0.28,0.63-0.73c-0.08-1.29,0.22-2.57,0.7-3.69c0.42-1,0.57-2.03,0.8-3.03
		c0.36-1.54,0.66-3.08,1.2-4.57C38.94,29.09,38.52,28.44,37.97,28.44z"/>
	<path class="st1" d="M10.27,38.53c-0.89-0.62-1.76-1.29-2.59-1.99c-0.65-0.56-1.42-0.8-2.26-1.13c-0.42,0.23-0.82,0.48-1.26,0.69
		C2.93,36.68,2.16,37.86,1,38.54c-0.26,0.15-0.26,0.42-0.01,0.62c0.89,0.72,1.77,1.45,2.69,2.13c0.6,0.44,0.63,0.4,1.63,0.32
		c0.21-0.02,0.52-0.09,0.61,0.01c0.57,0.69,1.1,0.08,1.39-0.17c0.58-0.48,1.54-0.62,1.67-1.57c0.01-0.05,0.17-0.12,0.25-0.11
		c0.65,0.07,0.87-0.34,1.03-0.85C10.31,38.79,10.6,38.76,10.27,38.53z"/>
	<path class="st1" d="M34.6,48.67c-0.19-0.05-0.41-0.02-0.62-0.02c-0.03,0-0.05,0-0.08,0c-0.2-0.11-0.44-0.1-0.65,0
		c-0.16,0-0.3,0.03-0.3,0.26c-0.1,0.17-0.12,0.37-0.07,0.56c-0.01,0.16,0.04,0.29,0.21,0.36c0.12,0.16,0.16,0.24,0.17,0.24
		c0,0,0,0,0,0c-0.01,0.03-0.08,0.13-0.34,0.36c-0.29,0.26-0.31,0.7-0.05,0.99c0.14,0.15,0.33,0.23,0.53,0.23
		c0.17,0,0.34-0.06,0.48-0.18c0.76-0.68,0.97-1.24,0.67-1.94c0.06-0.19,0.14-0.38,0.24-0.54C34.83,48.94,34.69,48.69,34.6,48.67z"/>
</g>
<g id="R" class="st0">
	<path class="st1" d="M9.23,26.51c0-0.58-0.22-0.79-0.76-0.59c-0.29,0.11-0.45,0.35-0.73-0.02c-0.13-0.17-0.44-0.31-0.67-0.31
		c-2-0.02-4-0.02-6,0.01c-0.1,0-0.31,0.38-0.27,0.42c0.83,1.01,1.8,1.86,3.14,2.13c0.81,0.17,0.87,0.22,0.63,0.92
		c-0.34,1.02-0.31,2.74,0.13,3.64c0.16,0.32,0.13,0.54,0.02,0.88c-0.21,0.62-0.33,1.3-0.34,1.95c-0.03,2.79-0.01,5.58-0.01,8.37
		c0,2.79-0.06,5.58,0.02,8.37c0.05,1.87-0.11,3.75-0.03,5.63c-0.08,0.64-0.11,1.31,0.08,2.03c0.08,0.3,0.05,0.69,0.03,1.1
		c-0.01,0.15-0.02,0.3-0.03,0.45c-0.03,0.68-0.07,1.36-0.11,2.04l-0.05,0.85c-0.02,0.41,0.29,0.76,0.7,0.78c0.01,0,0.03,0,0.04,0
		c0.39,0,0.72-0.3,0.74-0.7l0.05-0.84c0.04-0.69,0.08-1.38,0.11-2.07c0.01-0.13,0.01-0.27,0.02-0.4c0.03-0.49,0.07-1.05-0.07-1.59
		c-0.13-0.49-0.11-0.97-0.04-1.5c0.19-0.51,0.56-0.92,1.11-1.19c0.78-0.38,0.89-1.04,1-1.74c0.06-0.36-0.03-0.76,0.09-1.09
		c0.54-1.39,0.64-2.88,0.83-4.31c0.23-1.74,0.01-3.54,0.07-5.31c0.05-1.78,0.25-3.56,0.3-5.34c0.05-1.77,0.01-3.54,0.01-5.31
		C9.23,31.34,9.23,28.93,9.23,26.51z"/>
	<path class="st1" d="M38.24,30.42c-0.33-0.21-0.81-0.26-1.04-0.53c-0.14-0.17-0.1-0.44-0.46-0.45c-2.39-0.04-4.79,0.22-6.86-0.32
		c-0.46,0-0.62,0-0.78,0c-1.25,0.01-1.25,0.06-0.72,1.2c0.17,0.36,0.31,0.6,0.69,0.74c0.47,0.17,0.92,0.39,1.35,0.64
		c0.47,0.27,0.82,0.48,1.39,0.05c0.45-0.33,1.02,0.08,1.13,0.66c0.06,0.35-0.04,0.69,0.26,1.04c0.12,0.14-0.22,0.62-0.24,0.94
		c-0.09,2.21-0.03,4.4,0.29,6.58c-0.1,0.52-0.09,1.08-0.06,2.17c0.01,0.4,0.34,0.72,0.74,0.72c0.01,0,0.01,0,0.02,0
		c0.41-0.01,0.73-0.35,0.72-0.75c-0.02-1.09-0.03-1.55,0.08-2.03c0.06-0.09,0.12-0.18,0.2-0.26c0.26-0.28,0.48-0.52,0.84-0.12
		c0.01,0.01,0.35-0.17,0.4-0.3c0.09-0.29-0.01-0.68,0.14-0.9c0.28-0.41,0.38-0.55-0.22-0.75c-0.56-0.19-0.56-0.5-0.23-1.02
		c0.2-0.31,0.39-0.58,0.86-0.58c0.45,0,0.76-0.27,0.77-0.79c0.02-1.69,0.91-3.21,1.02-4.88C39.13,30.95,38.62,30.67,38.24,30.42z"/>
	<path class="st1" d="M23.92,42.75c-0.11-0.01-0.32,0.14-0.33,0.12c-0.42-0.69-1.1-0.53-1.73-0.53c-0.92-0.01-1.83,0-2.75,0
		c-1.19,0-2.37,0.01-3.56-0.01c-0.33,0-0.5,0.06-0.49,0.43c0.01,0.26,0.06,0.62-0.08,0.75c-0.44,0.42,0.09,0.66,0.2,0.67
		c0.72,0.04,1.45,0.44,2.1,0.34c0.59-0.09,0.83,0.19,1.24,0.34c0.56,0.21,0.56,0.31,0.27,0.73c-0.18,0.26-0.43,0.71-0.32,0.86
		c0.51,0.73,0.87,1.76,2.14,1.37c0.25-0.08,0.54,0.02,0.8-0.02c0.17-0.03,0.43-0.12,0.47-0.25c0.53-1.48,1.79-2.46,2.6-3.75
		C24.88,43.18,24.73,42.83,23.92,42.75z"/>
</g>
<g id="S" class="st0">
	<path class="st1" d="M18.69,32.38c0-2.34,0.01-4.69,0-7.03c0-0.73-0.22-0.93-0.96-0.94c-0.85-0.02-1.71,0-2.56,0
		c-0.63,0-1.27,0-1.9,0l-2.09-0.52c-0.36-0.09-0.74,0.13-0.83,0.5c-0.09,0.37,0.13,0.74,0.5,0.83l1.47,0.37
		c0.55,0.38,1.17,0.63,1.92,0.63c0.08,0,0.23,0.19,0.23,0.29c0,0.28,0.02,0.61-0.11,0.85c-0.21,0.38-0.16,0.64,0.02,1.05
		c0.22,0.5,0.34,1.16-0.25,1.6c-0.36,0.27-0.24,0.62-0.24,0.95c-0.01,1.5-0.04,2.99,0.01,4.49c0.04,1.26-0.24,2.54,0.27,3.77
		c0.11,0.25,0.07,0.6,0.01,0.89c-0.4,1.93-0.39,2.34,0,3.95c0.15,0.6,0.23,1.21,0.3,1.82c0.04,0.39,0,0.8,0.01,1.2
		c0.01,0.43,0,0.83,0.26,1.25c0.13,0.21-0.18,0.69-0.25,1.05c-0.04,0.19-0.09,0.46,0.01,0.59c0.57,0.74,0.06,1.72,0.59,2.46
		c-0.04,1,0.14,1.98,0.26,2.97c-0.07,1.14-0.06,2.27-0.05,3.37c0.01,0.48,0.01,0.97,0.01,1.45c0,0.38,0.3,0.69,0.68,0.69
		c0,0,0,0,0,0c0.38,0,0.69-0.31,0.69-0.68c0-0.49,0-0.98-0.01-1.47c-0.01-1.25-0.02-2.53,0.09-3.79c0.22-0.53,0.06-1.07,0.14-1.59
		c0.09-0.66,0.2-1.31,0.3-1.97c0.07-0.46-0.21-1,0.3-1.37c-0.01-1.3,0.45-2.52,0.59-3.79c0.09-0.81,0.11-1.61,0.26-2.43
		c0.28-1.57,0.3-3.2,0.34-4.81c0.05-1.94,0.01-3.89,0.01-5.84C18.69,32.88,18.69,32.63,18.69,32.38z"/>
	<path class="st1" d="M36.27,25.59c-1.75,0.02-3.51,0.02-5.26,0c-0.57-0.01-1.13,0.1-1.7-0.25c-0.29-0.18-0.84,0.06-1.27,0.1
		c0.01,0.24-0.07,0.4-0.2,0.52c-0.13,0-0.25,0-0.38,0l-0.49,0c-0.38,0-0.69,0.31-0.69,0.69s0.31,0.69,0.69,0.69l0.49,0
		c0.04,0,0.08,0,0.12,0c0.63,0.44,1.37,0.68,2.08,0.94c1.31,0.49,1.57,0.87,1.2,2.15c-0.07,0.23-0.11,0.46-0.12,0.7
		c-0.01,0.85,0.01,1.69-0.01,2.54c-0.01,0.38,0.11,0.52,0.48,0.71c0.35,0.18,0.7,0.76,0.7,1.16c-0.01,0.94,0.08,1.86,0.18,2.78
		c0.05,1.44-0.06,2.88-0.19,4.38c-0.07,0.82-0.14,1.66-0.18,2.49c-0.02,0.38,0.27,0.7,0.65,0.72c0.01,0,0.02,0,0.03,0
		c0.36,0,0.67-0.29,0.69-0.65c0.04-0.81,0.11-1.64,0.18-2.44c0.13-1.55,0.26-3.15,0.18-4.76c0.01-0.38,0.06-0.75,0.31-1.09
		c-0.09-1.23,0.55-2.26,0.92-3.36c0.34-1.01,0.85-1.96,0.91-3.07c0.03-0.58,0.41-1.14,0.49-1.73c0.14-0.93,0.77-1.72,0.7-2.71
		C36.75,25.71,36.67,25.58,36.27,25.59z"/>
	<path class="st1" d="M9.72,40.26c-0.95,0.04-1.9,0.01-2.85,0.01c-1,0-2,0.01-3,0c-0.32,0-0.6-0.01-0.54,0.45
		c0.1,0.78-0.28,1.48-0.44,2.21C2.84,43.14,2.71,43.18,3,43.28c0.35,0.11,0.65,0.44,1,0.47c0.57,0.06,0.77,0.61,0.78,0.85
		c0.03,0.7,0.29,1.16,0.77,1.65c0.55,0.55,0.18,1.6-0.58,1.78c-0.28,0.07-0.46,0.08-0.44,0.41c0.02,0.3,0.01,0.6,0,0.9
		c-0.02,0.51-0.02,0.97,0.65,1.12c0.33,0.07,0.44,0.4,0.59,0.73c0.13,0.32,0.21,0.63,0.24,0.94c-0.12,1.05-0.14,2.13-0.06,3.3
		c0.01,0.18,0.01,0.37,0.01,0.55l0,0.3c0,0.38,0.31,0.69,0.69,0.69c0.38,0,0.69-0.31,0.69-0.69l0-0.27c0-0.23,0.01-0.45-0.01-0.68
		c-0.09-1.32-0.05-2.52,0.14-3.67c0.18-0.72,0.42-1.43,0.57-2.16c0.25-1.23,1.05-2.31,1.02-3.61c0.61-0.46,0.21-1.17,0.43-1.76
		c0.38-1.04,0.54-2.17,0.77-3.26C10.34,40.47,10.23,40.24,9.72,40.26z"/>
	<path class="st1" d="M5.76,60.33c-1.16-0.01-1.17,0.02-0.93,1.16c0.03,0.14-0.02,0.3,0.01,0.44c0.04,0.17,0.12,0.33,0.18,0.5
		c0.2-0.11,0.49-0.18,0.59-0.35c0.2-0.36,0.27-0.78,0.43-1.16C6.29,60.33,6.3,60.34,5.76,60.33z"/>
	<path class="st1" d="M15.23,63.31c-0.03,0.01-0.06,0.02-0.08,0.02c-0.6,0.15-0.9,0.5-0.9,1.04c0,0.29-0.02,0.37-0.12,0.49
		c-0.32,0.38-0.19,0.85-0.09,1.2c0.02,0.08,0.05,0.16,0.06,0.23c0.06,0.34,0.35,0.57,0.68,0.57c0.04,0,0.08,0,0.11-0.01
		c0.37-0.06,0.63-0.42,0.56-0.79c-0.02-0.12-0.05-0.25-0.09-0.38c-0.01-0.04-0.03-0.09-0.04-0.13c0.21-0.32,0.27-0.63,0.29-0.92
		c0.07-0.02,0.15-0.05,0.23-0.09c0.34-0.17,0.48-0.59,0.31-0.92C15.98,63.28,15.57,63.14,15.23,63.31z"/>
</g>
<g id="T" class="st0">
	<path class="st1" d="M16.42,30.09c-0.21-0.11-0.78-0.03-0.8,0.05c-0.3,1.19-0.73,0.51-1.16,0.12c-0.12-0.11-0.29-0.21-0.44-0.21
		c-0.98-0.02-1.88-0.46-2.91-0.4c-1.85,0.12-3.72,0.03-5.58,0.03c-0.3,0-0.62-0.06-0.89,0.02c-0.14,0.04-0.3,0.34-0.28,0.5
		c0.04,0.26,0.21,0.51,0.36,0.74c0.69,1.08,1.93,1.42,2.9,2.12c0.51,0.37,1.26,0.47,1.92,0.53c0.5,0.05,0.62,0.22,0.56,0.64
		c-0.12,0.9-0.32,1.81-0.34,2.71c-0.05,2.09-0.02,4.17-0.02,6.26c0,1.14,0,2.27,0,3.41c-0.01,0.05-0.01,0.11-0.02,0.16
		c-0.13,1.1-0.18,1.72,0.02,2.71c0,0.29,0,0.58,0,0.88c0,0.27,0.03,0.66,0.2,0.78c0.09,0.06,0.19,0.1,0.29,0.14
		c0.13,0.32,0.43,0.53,0.76,0.53c0.08,0,0.16-0.01,0.25-0.04c0.33-0.1,0.54-0.39,0.57-0.71c0.6-0.53,0.59-0.59,0.05-1.19
		c-0.26-0.29-0.43-0.59-0.55-0.92c-0.1-0.63-0.07-1.09,0.02-1.83c0.04-0.14,0.09-0.28,0.15-0.42c0.22-0.55,0.4-0.95,1.05-0.91
		c0.43,0.03,0.41-0.24,0.46-0.56c0.23-1.57,0.38-3.16,0.82-4.67c0.18-0.6,0.02-0.46-0.31-0.54c-0.09-0.02-0.18-0.32-0.14-0.44
		c0.03-0.11,0.26-0.22,0.4-0.22c0.34-0.01,0.74-0.13,0.79-0.33c0.27-0.98,0.7-1.93,0.57-2.98c-0.03-0.26-0.35-0.52-0.31-0.74
		c0.03-0.17,0.54-0.23,0.62-0.42c0.2-0.51,0.3-1.07,0.42-1.62c0.18-0.82,0.28-1.67,0.52-2.47C16.47,30.54,16.75,30.27,16.42,30.09z"
		/>
	<path class="st1" d="M24.23,27.7c0.94,0.37,1.55,0.96,2.22,1.58c0.25,0.23,0.37,0.51,0.06,0.73c-0.92,0.62-0.97,1.51-0.93,2.49
		c0.05,1.31,0.01,2.62,0.01,3.94c0,1.38,0.01,2.75,0,4.13c-0.05,0.25-0.1,0.51-0.08,0.81c0.07,1.06,0.16,2.12,0.25,3.17l0.1,1.14
		c0.04,0.43,0.39,0.75,0.82,0.75c0.02,0,0.05,0,0.07,0c0.45-0.04,0.79-0.43,0.75-0.89l-0.1-1.15c-0.09-1.04-0.18-2.09-0.25-3.14
		c0.18-0.63,0.6-0.93,1.52-1.21c0.19-0.06,0.52-0.21,0.51-0.29c-0.1-0.89,0.4-1.9-0.55-2.64c-0.43-0.34-0.03-0.75,0.24-0.82
		c0.91-0.24,0.9-0.99,0.61-1.45c-0.3-0.48-0.07-0.67,0.18-0.77c0.74-0.29,0.91-0.87,0.99-1.55c0.05-0.39,0.02-0.76,0.2-1.17
		c0.2-0.47,0.17-1.16-0.03-1.65c-0.16-0.41-0.16-0.58,0.11-0.89c0.29-0.34,0.76-0.52,0.82-1.09c0.07-0.66,0.3-1.3,0.46-1.95
		c0.03-0.13,0.11-0.35,0.09-0.36c-0.96-0.44-1.81-1.15-2.95-1.13c-1.14,0.02-2.28,0.03-3.42-0.01c-0.68-0.02-1.33-0.05-2.03-0.27
		c-0.92-0.3-2.02-0.1-3.04-0.06c-0.46,0.02-0.51,0.46-0.29,0.92C21.31,26.45,22.8,27.14,24.23,27.7z"/>
	<path class="st1" d="M33.95,64.42c0.59,0.13,0.7-0.2,0.66-0.71c-0.04-0.41-0.01-0.83-0.01-1.25c0-0.54,0.02-1.07-0.01-1.61
		c-0.01-0.13-0.2-0.36-0.26-0.35c-0.74,0.16-1.15-0.17-1.46-0.81c-0.09-0.18-0.49-0.26-0.76-0.27c-0.72-0.04-1.44-0.06-2.16,0
		c-0.68,0.06-1.34,0.27-2.01,0.33c-0.71,0.06-1.6-0.25-2.12,0.07c-0.77,0.48-1.51,0.11-2.22,0.32c-0.64,0.19-1.25,0.65-1.87,0.64
		c-0.82,0-1.33,0.32-1.83,0.86c-0.08,0.09-0.29,0.17-0.37,0.13c-0.9-0.52-1.86-0.1-2.79-0.21c-0.16-0.02-0.44,0.15-0.49,0.3
		c-0.07,0.19-0.05,0.54,0.08,0.65c0.38,0.32,0.86,0.53,1.26,0.83c0.29,0.22,0.74,0.5,0.75,0.78c0.04,0.57,0.24,0.66,0.75,0.66
		c2.82-0.02,5.64,0.04,8.46-0.03c1.23-0.03,2.25,0.36,3.17,1.05c0.42,0.31,0.56,0.32,0.92-0.02C32.3,65.17,32.76,64.16,33.95,64.42z
		"/>
	<path class="st1" d="M27.33,47.61c-0.25,0.12-0.44,0.33-0.66,0.51c0.25,0.21,0.5,0.42,0.92,0.77c0.08-0.45,0.18-0.71,0.14-0.94
		C27.71,47.82,27.4,47.58,27.33,47.61z"/>
	<path class="st1" d="M12.03,52.74c-0.42-0.17-0.9,0.03-1.07,0.46l-0.72,1.79c-0.17,0.42,0.03,0.9,0.46,1.07
		c0.1,0.04,0.2,0.06,0.31,0.06c0.33,0,0.63-0.19,0.76-0.51l0.72-1.79C12.65,53.39,12.45,52.91,12.03,52.74z"/>
	<path class="st1" d="M35.01,65.1c-0.32-0.32-0.84-0.32-1.16,0l-0.36,0.36c-0.32,0.32-0.33,0.84-0.01,1.16
		c0.16,0.16,0.37,0.24,0.58,0.24c0.21,0,0.42-0.08,0.58-0.24L35,66.26C35.32,65.94,35.33,65.42,35.01,65.1z"/>
</g>
<g id="U" class="st0">
	<path class="st1" d="M38.8,26.15c0-0.45-0.18-0.5-0.55-0.5c-2.31,0.01-4.61,0-6.92,0.01c-0.2,0-0.48-0.05-0.59,0.06
		c-0.15,0.14-0.42,0.18-0.27,0.66c0.3,0.98,1.15,0.93,1.76,1.11c1.36,0.42,1.53,0.48,1.53,1.78c0,5.73,0,11.47,0,17.2
		c0,4.04,0,8.07,0,12.11c-0.27,1.11-0.53,2.26-0.27,3.55c0.09,0.47,0.03,1.02-0.04,1.6c-0.04,0.29-0.07,0.58-0.09,0.87
		c-0.02,0.4,0.28,0.74,0.67,0.76c0.01,0,0.03,0,0.04,0c0.38,0,0.69-0.29,0.72-0.68c0.02-0.26,0.05-0.52,0.08-0.79
		c0.08-0.67,0.16-1.36,0.02-2.05c-0.19-0.93-0.01-1.83,0.22-2.76c0.36-0.44,0.74-0.5,1.37-0.19c0.21,0.1,0.43,0.45,0.42-0.09
		c-0.01-0.81,0.11-1.59,0.29-2.38c0.18-0.77,0.11-1.57,0.3-2.38c0.39-1.59,0.39-3.26,0.63-4.9c0.23-1.6,0.06-3.24,0.31-4.88
		c0.32-2.12-0.25-4.31,0.36-6.43C38.79,33.97,38.78,30.06,38.8,26.15z"/>
	<path class="st1" d="M10.06,46.67c-0.24-1.18-0.54-2.37-0.9-3.53c-0.33-1.07-0.93-2.04-0.96-3.21c-0.01-0.38-0.26-0.9-0.56-1.09
		c-0.71-0.42-1.17-0.96-1.47-1.57c-0.34-2.46-0.35-4.46-0.03-6.31c0.15-0.2,0.33-0.4,0.5-0.59c0.07-0.09,0.27-0.17,0.26-0.21
		c-0.2-0.64-0.31-1.37-0.69-1.89c-0.26-0.35-0.33-0.96-0.93-1.04c-0.08,0.38-0.04,0.85-0.26,1.11c-0.41,0.48-0.25,0.98-0.25,1.47
		c0,0.22,0,0.44,0,0.66c-0.4,2.11-0.4,4.36-0.01,7.16c0,2.03,0,4.07,0,6.1c0,0.31-0.03,0.63,0.01,0.94c0.02,0.15,0.16,0.3,0.28,0.42
		c0.2,0.2,0.54,0.34,0.62,0.58c0.11,0.33,0.04,0.72,0.02,1.09c0,0.08-0.14,0.22-0.17,0.21c-0.74-0.28-1.01,0.55-1.62,0.69
		c-0.92,0.22-1.78,0.76-2.63,1.21c-0.63,0.33-0.63,0.94-0.03,1.24c0.4,0.2,0.8,0.34,1.28,0.33c1.2-0.04,2.41-0.01,3.62-0.01
		c1.31,0,2.62,0.01,3.93,0c0.68,0,0.83-0.34,0.73-1.06C10.68,48.42,10.25,47.59,10.06,46.67z"/>
	<path class="st1" d="M27.5,26.52c-0.6-0.31-1.21-0.78-1.84-0.82c-2.15-0.13-4.33,0.14-6.18-0.35c-0.66,0-1.03-0.03-1.39,0.01
		c-0.59,0.05-0.7,0.43-0.5,1.02c0.18,0.53,0.51,0.91,0.93,1.14c0.72,0.39,1.52,0.63,2.27,0.96c1.75,0.79,2.01,1.09,1.21,2.76
		c-0.29,0.6-0.28,1.43-0.07,1.94c0.05,0.11-0.04,0.31-0.12,0.43c-0.35,0.52-0.53,1.64-0.34,2.1c0.13,0.31,0.15,0.68,0.33,0.95
		c0.43,0.66,0.35,1.55,1.03,2.08c0.14,0.11,0.3,0.21,0.44,0.31c0.14-0.2,0.3-0.4,0.4-0.62c0.06-0.13,0.03-0.31,0.01-0.46
		c-0.12-0.82,0.21-1.37,0.98-1.68c0.08-0.03,0.2-0.2,0.19-0.23c-0.38-0.67,0.17-1.16,0.33-1.72c0.12-0.4,0.2-0.89,0.76-0.35
		c0.04,0.04,0.17,0.04,0.21,0c0.56-0.52,0.98-1.09,1.01-1.93c0.04-1.05,0.02-2.17,0.38-3.12c0.26-0.69,0.13-1.3,0.21-1.94
		C27.77,26.86,27.63,26.59,27.5,26.52z"/>
</g>
<g id="V" class="st0">
	<path class="st1" d="M37.02,37.34c0.61-0.35,1.12-0.88,1.65-1.36c0.08-0.08,0.1-0.36,0.03-0.45c-0.23-0.29-0.46-0.63-0.78-0.77
		c-0.97-0.42-1.48-1.39-2.39-1.9c-0.26-0.15-0.51-0.32-0.76-0.5c-0.06-0.06-0.12-0.13-0.18-0.2c-0.22-0.26-0.47-0.55-0.85-0.7
		c-0.06-0.02-0.16-0.1-0.25-0.18c-0.13-0.11-0.31-0.25-0.53-0.35c-0.24-0.17-0.48-0.19-0.69-0.1c-0.04,0.01-0.09,0.01-0.13,0.02
		c-0.34,0.07-0.56,0.41-0.48,0.75c0.06,0.27,0.29,0.46,0.55,0.49c0.02,0.01,0.03,0.03,0.05,0.04c0.22,0.12,0.46,0.21,0.68,0.32
		c0.09,0.06,0.2,0.13,0.32,0.17c0.01,0.01,0.02,0.01,0.03,0.02c0.12,0.08,0.21,0.41,0.14,0.54c-0.09,0.18-0.23,0.47-0.59,0.14
		c-0.21-0.2-0.26-0.11-0.23,0.3c0.03,0.33,0.07,0.74-0.09,1.01c-0.28,0.49-0.7,0.91-1.05,1.36c-0.25,0.31-0.47,0.64-0.73,0.94
		c-0.73,0.85-1.38,1.8-2.24,2.5c-0.59,0.48-1.15,0.99-1.72,1.5c-0.91,0.81-1.78,1.68-2.75,2.4c-0.34,0.26-0.55,0.66-1.02,0.8
		c-0.34,0.1-0.62,0.31-0.87,0.55l-0.87,0.25c-0.34,0.1-0.53,0.44-0.43,0.78c0.08,0.28,0.33,0.46,0.61,0.46
		c0.06,0,0.12-0.01,0.17-0.02l0.7-0.2c0.37,0.14,0.72,0.32,0.95,0.7c0.03,0.05,0.12,0.05,0.1,0.04c0.62-0.29,1.28-0.14,1.79-0.56
		c0.75-0.61,1.5-1.23,2.32-1.75c2.01-1.28,3.71-2.96,5.68-4.3C34.48,39.19,35.64,38.12,37.02,37.34z"/>
	<path class="st1" d="M10.77,32.66c-0.86-0.49-1.86-0.86-2.47-1.73c-0.42-0.61-0.94-1.17-1.25-1.83c-0.39-0.84-0.92-1.08-1.79-0.82
		c-0.34,0.1-0.81-0.07-1.05,0.11c-0.55,0.41-0.99,0.95-1.46,1.45c-0.04,0.04-0.03,0.22,0.02,0.25c0.1,0.07,0.27,0.16,0.35,0.12
		c0.16-0.07,0.29-0.22,0.41-0.35c0.24-0.27,0.43-0.23,0.68,0.01c0.18,0.17,0.55,0.22,0.64,0.41c0.23,0.48,1.6,0.39,0.74,1.42
		c-0.02,0.03,0.11,0.19,0.18,0.28c0.89,1.37,2.1,2.43,3.41,3.39c0.22,0.16,0.39,0.18,0.52-0.12c0.08-0.2,0.19-0.45,0.35-0.53
		c0.49-0.25,1.02-0.43,1.53-0.63c0.1-0.04,0.21-0.08,0.45-0.17C11.27,33.73,11.35,32.99,10.77,32.66z"/>
	<path class="st1" d="M38.36,55.77c-0.32-0.35-0.54,0.35-0.75-0.08c-0.05-0.11-0.41-0.1-0.63-0.1c-1.15-0.01-2.3,0-3.45,0
		c-1.24,0-2.48,0-3.73,0c-0.13,0-0.25,0.05-0.38,0.07c0.06,0.1,0.12,0.19,0.17,0.29c0.42,0.86,1.03,1.41,2.06,1.28
		c0.36,0.39,0.83,0.24,1.26,0.28c0.41,0.04,0.65,0.42,0.6,0.9c-0.04,0.42,0.06,0.53,0.51,0.34c0.23-0.1,0.3-0.05,0.4,0.08
		c0.17,0.25,0.36,0.49,0.48,0.76c0.24,0.51,0.82,0.26,1.17,0.55c0.05,0.04,0.46-0.27,0.65-0.47c0.2-0.22,0.33-0.5,0.5-0.75
		c0.49-0.76,1-1.51,1.45-2.28C38.95,56.2,38.72,56.17,38.36,55.77z"/>
	<path class="st1" d="M34.81,61.15c-0.21-0.06-0.44-0.04-0.52-0.05c-0.29,0-0.43-0.02-0.56,0c-0.33,0.06-0.42,0.41-0.18,0.72
		c0.08,0.1,0.22,0.2,0.23,0.31c0.1,0.63,0.49,0.36,0.79,0.24c0.16-0.06,0.27-0.24,0.39-0.38C35.25,61.71,35.17,61.26,34.81,61.15z"
		/>
	<path class="st1" d="M1.58,30.69c-0.16,0.14-0.36,0.24-0.54,0.36c-0.31,0.2-0.33,0.41-0.03,0.55c0.23,0.11,0.47,0.22,0.71,0.27
		c0.35,0.07,0.77-0.29,0.75-0.63c-0.08-0.11-0.23-0.24-0.26-0.39C2.1,30.31,1.89,30.41,1.58,30.69z"/>
	<path class="st1" d="M17.3,42.64c-0.12,0.01-0.24,0.05-0.36,0.08c0.03,0.06,0.07,0.17,0.1,0.17c0.12,0.01,0.24-0.03,0.4-0.05
		C17.37,42.75,17.33,42.64,17.3,42.64z"/>
	<path class="st1" d="M14.8,38.51c-0.12,0.01-0.24,0.05-0.36,0.08c0.03,0.06,0.07,0.17,0.1,0.17c0.12,0.01,0.24-0.03,0.4-0.05
		C14.87,38.62,14.83,38.5,14.8,38.51z"/>
</g>
<g id="W" class="st0">
	<path class="st1" d="M38.78,57.39c-0.01-0.69-0.77-1.28-1.29-0.89c-0.62,0.46-1.21,0.29-1.81,0.33c-2.01,0.15-4.02,0.26-6.04,0.39
		c-0.13,0.01-0.32-0.04-0.37,0.03c-0.43,0.6-1.06,0.26-1.6,0.36c-0.6,0.11-1.18,0.28-1.78,0.38c-0.91,0.15-1.88,0.13-2.73,0.43
		c-0.82,0.29-1.98-0.05-2.43,1.1c-0.03,0.07-0.42,0.1-0.55,0.01c-0.92-0.66-1.56-0.35-2.24,0.44c-0.6,0.69-1.5,0.72-2.39,0.77
		c-0.8,0.04-1.37-0.2-1.8-0.81c-0.26-0.37-0.61-0.37-1.01-0.39c-0.88-0.05-1.75,0.38-2.55,0.34c-2.3-0.13-4.53,0.58-6.82,0.44
		c-0.62-0.04-1.11,0.11-1.5,0.61c-0.24,0.3-0.6,0.51-0.8,0.83c-0.18,0.29-0.28,0.67-0.29,1.02C0.8,62.83,1.31,63,1.59,63
		c5.1,0.01,10.2,0.01,15.3,0.01c4.91,0,9.81,0.01,14.72-0.02c0.71,0,1.38,0.07,1.95,0.44c1.33,0.86,2.6,1.81,3.92,2.7
		c0.23,0.15,0.66,0.35,0.77,0.26c0.26-0.22,0.52-0.59,0.52-0.91C38.81,62.78,38.81,60.08,38.78,57.39z"/>
	<path class="st1" d="M6.55,34.02c0.75,0.13,1.51,0.9,2.28,0.28c0.47-0.38,0.59,0.04,0.68,0.2c0.14,0.25,0.2,0.6,0.16,0.89
		c-0.13,1.03-0.06,1.12,0.84,0.73c0.49-0.21,0.7-0.19,0.73,0.37c0.01,0.3-0.1,0.64,0.41,0.67c1.05,0.06,2.1,0.16,3.15,0.24
		c0.61,0.17,0.56,0.18,0.33-0.46c-0.24-0.67-0.23-1.49-0.61-2.05c-0.4-0.58-1.14-0.92-1.71-1.4c-0.18-0.15-0.27-0.4-0.4-0.6
		c-0.83-1.27-1.62-2.55-2.49-3.79c-0.68-0.96-1.86-1.23-2.31-0.36c-0.49,0.95-1.42,1.13-2,1.83c-0.73,0.87-0.7,0.92-0.25,2.14
		C5.6,33.38,5.99,33.93,6.55,34.02z"/>
	<path class="st1" d="M25.63,26.07l1.97,0.37c0.71,0.24,1.44,0.38,2.19,0.28c1.05-0.15,1.01,0.95,1.63,1.16
		c0.47,0.16,0.35,0.42,0.4,0.71c0.12,0.85,0.24,1.7,0.39,2.54c0.09,0.48,0.64,0.56,1.04,0.18c0.41-0.4,0.76-0.82,1.46-0.71
		c0.7,0.11,0.74-0.21,0.41-0.78c-0.16-0.27-0.08-0.68-0.11-1.03c1.09-0.08,1.09-1.24,1.73-1.78c0.44-0.37,0.49,0.06,0.72,0.12
		c0.15,0.04,0.41-0.03,0.5-0.15c0.08-0.1,0.05-0.38-0.04-0.5c-0.19-0.26-0.48-0.44-0.67-0.7c-0.59-0.79-1.33-1.05-2.32-0.98
		c-1.29,0.09-2.58,0.02-3.88,0.02c-0.83,0-1.67,0-2.5,0l-2.59-0.48c-0.49-0.09-0.94,0.23-1.03,0.71
		C24.83,25.52,25.15,25.98,25.63,26.07z"/>
</g>
<g id="X" class="st0">
	<path class="st1" d="M38.19,33.58c-0.67-0.52-1.47-0.91-2.06-1.5c-1.03-1.04-2.26-1.81-3.38-2.72c-0.29-0.24-0.61-0.46-0.94-0.62
		c-0.12-0.06-0.35,0.03-0.5,0.12c-0.23,0.13-0.06,0.38-0.09,0.51c-0.12,0.63,0.2,1.22,0.1,1.83c-0.1,0.61,0.11,1.14,0.43,1.61
		c0.21,0.32,0.21,0.48-0.05,0.74c-0.8,0.79-1.67,1.51-2.22,2.51c-0.13,0.24-0.11,0.57-0.27,0.78c-0.15,0.2-0.48,0.27-0.66,0.45
		c-1.74,1.79-3.67,3.36-5.56,4.97c-1.24,1.06-2.5,2.11-3.52,3.42c-0.3,0.38-0.5,0.7-0.44,1.12c0,0.72,0,0.73,0.66,0.39
		c0.37-0.19,0.77-0.39,1.06-0.68c0.37-0.39,0.76-0.55,1.3-0.52c0.99,0.05,1.85-0.21,2.62-0.93c0.87-0.81,1.85-1.51,2.81-2.23
		c1.9-1.42,3.83-2.81,5.74-4.22c1.64-1.21,3.26-2.47,4.94-3.63c0.27-0.19,0.7-0.29,0.66-0.62C38.76,34.07,38.45,33.78,38.19,33.58z"
		/>
	<path class="st1" d="M37.22,55.55c-0.25-0.03-0.55-0.1-0.74,0.01c-1.1,0.63-2.37,0.04-3.52,0.54c-0.61,0.26-1.4,0.13-2.11,0.3
		c-0.68,0.16-1.42,0.25-2.11,0.3c-1.26,0.09-2.29,0.84-3.52,0.96c-0.18,0.02-0.44,0.32-0.46,0.51c-0.07,0.63-0.66,0.43-0.76,0.33
		c-0.54-0.56-1.14-0.3-1.75-0.28c-1.6,0.05-3.2,0.02-4.79,0.02c-1.7,0-3.4,0.04-5.09-0.02c-0.68-0.03-0.47,0.63-0.83,0.8
		c0.15,0.24,0.24,0.6,0.45,0.69c0.78,0.31,1.51,0.67,2.44,0.66c5.74-0.06,11.48-0.02,17.23-0.04c0.64,0,1.22,0.09,1.78,0.42
		c0.87,0.52,1.78,0.99,2.68,1.48c0.09,0.05,0.21,0.05,0.32,0.07c0.18-0.91,0.77-0.5,1.21-0.32c0.28,0.12,0.32,0.08,0.32-0.17
		c0-1.84,0-3.67,0-5.51C37.93,55.81,37.64,55.6,37.22,55.55z"/>
	<path class="st1" d="M8.71,31.11c-0.92-1.07-2.18-1.73-3.25-2.61c-0.1-0.08-0.38-0.08-0.49,0c-1.23,0.89-2.44,1.8-3.64,2.73
		c-0.17,0.13-0.19,0.42-0.33,0.6c-0.15,0.19-0.31,0.27-0.05,0.54c0.83,0.88,1.78,1.64,2.8,2.27c0.38,0.23,0.6,0.87,1.27,0.71
		c0.44-0.15,0.92-0.22,1.3-0.46c0.8-0.51,1.55-1.08,2.29-1.67c0.39-0.31,0.93-0.66,0.99-1.05C9.64,31.86,9.02,31.47,8.71,31.11z"/>
	<path class="st1" d="M16.47,49.81c0.17,0,0.35-0.07,0.48-0.2l0.3-0.3c0.27-0.27,0.27-0.7,0-0.97c-0.27-0.27-0.7-0.27-0.97,0
		l-0.3,0.3c-0.27,0.27-0.27,0.7,0,0.97C16.12,49.74,16.29,49.81,16.47,49.81z"/>
</g>
<g id="Y" class="st0">
	<path class="st1" d="M20.05,60.19c-0.08-0.4-0.11-0.89-0.35-1.18c-0.77-0.92-0.45-2.27-1.31-3.14c-0.08-0.08,0-0.32-0.01-0.49
		c-0.03-0.32,0.04-0.76-0.14-0.92c-0.2-0.17-0.63-0.12-0.95-0.07c-0.46,0.07-0.91,0.28-1.37,0.3c-0.43,0.02-0.57,0.13-0.56,0.57
		c0.02,1.94,0.02,3.89,0,5.83c-0.01,0.38,0.1,0.65,0.39,0.84c0.81,0.52-0.81,0.69-0.17,1.19c0.02,0.01-0.08,0.26-0.14,0.26
		c-1.48,0.16-2.43,1.38-3.76,1.85c-0.1,0.03-0.2,0.14-0.23,0.23c-0.11,0.3-0.32,0.64-0.26,0.91c0.07,0.35,0.47,0.37,0.83,0.36
		c1.34-0.02,2.68-0.01,4.02-0.01c1.45,0,2.9,0,4.36,0c0.58,0,1.2-0.78,0.94-1.23C20.35,63.85,20.41,61.97,20.05,60.19z"/>
	<path class="st1" d="M12.33,28.67c-0.89-0.01-1.79,0-2.68,0c-1.06,0-2.12,0.01-3.18,0c-0.54-0.01-0.85,0.32-0.84,0.77
		c0.02,0.61-0.22,1.13-0.34,1.7c-0.08,0.37-0.23,0.89,0.52,0.95c0.18,0.01,0.47,0.51,0.45,0.77c-0.13,1.42,0.28,2.79,0.34,4.19
		c0.03,0.51,0.21,0.95,0.66,0.94c0.48-0.01,1.06,0.41,1.47-0.49c0.53-1.17,1.56-2.12,2.16-3.27c0.81-1.54,1.43-3.18,2.09-4.79
		C13.2,28.93,12.95,28.68,12.33,28.67z"/>
	<path class="st1" d="M16.7,44.37c0.09-0.04,0.23-0.05,0.28-0.12c0.23-0.31-0.37-1.86-0.69-1.76c-0.37,0.12-0.74,0.55-0.9,0.93
		C15.25,43.73,16.26,44.41,16.7,44.37z"/>
	<path class="st1" d="M34.55,24.76c-0.02-0.05-0.05-0.09-0.08-0.14c0-0.01,0-0.02,0-0.04c0.01-0.24-0.14-0.28-0.32-0.28
		c-0.17-0.08-0.37-0.1-0.57-0.04l-0.18,0.06c-1.37-0.02-2.75-0.07-4.12,0.02c-1.49,0.09-2.93-0.27-4.39-0.35
		c-0.45,0-0.91-0.06-1.34,0.02c-0.29,0.05-0.6,0.26-0.78,0.49c-0.07,0.09,0.15,0.47,0.31,0.66c0.86,0.99,2.06,1.44,3.26,1.82
		c0.8,0.26,1.61,0.54,2.23,1.05c0.38,0.31,0.39,1.03,0.64,1.54c0.1,0.2,0.15,0.24,0.04,0.49c-0.24,0.57-0.27,1.26-0.75,1.68
		c-0.58,0.5-0.5,1.15-0.36,1.67c0.26,0.97,1.09,1.59,1.83,2.23c0.19,0.17,0.68,0.11,0.97,0c0.14-0.05,0.14-0.47,0.19-0.72
		c0.03-0.16,0.02-0.32,0.07-0.47c0.18-0.52,1.51-2.46,1.98-2.99c0.16-0.18,0.26-0.46,0.29-0.7c0.05-0.38-0.14-0.87,0.04-1.15
		c0.65-0.99,0.25-1.82-0.25-2.65c-0.2-0.32-0.11-0.5,0.13-0.69c0.25-0.2,0.47-0.49,0.76-0.59c0.34-0.12,0.41-0.3,0.41-0.51
		C34.59,25.04,34.6,24.9,34.55,24.76z"/>
	<path class="st1" d="M6.95,41.12c-0.3-0.06-0.61,0.06-0.78,0.3c-0.19-0.03-0.43-0.04-0.68,0.07c-0.39,0.16-0.57,0.61-0.41,1
		c0.15,0.35,0.53,0.53,0.89,0.45c0.02,0,0.04,0.01,0.07,0.01c0.14,0.03,0.26,0.04,0.37,0.04c0.79,0,1.05-0.58,1.13-0.97
		C7.63,41.61,7.36,41.21,6.95,41.12z"/>
</g>
<g id="Z" class="st0">
	<path class="st1" d="M22.16,27.66c-1.32-0.02-2.64-0.02-3.96-0.02c-0.28-0.06-0.58-0.1-0.9-0.1c-0.5-0.02-1.01-0.09-1.54-0.18
		c-0.25-0.04-0.49-0.08-0.74-0.11c-0.4-0.05-0.75,0.22-0.8,0.61s0.22,0.74,0.61,0.8c0.23,0.03,0.47,0.07,0.7,0.1
		c0.56,0.09,1.13,0.18,1.72,0.2c0.25,0.01,0.47,0.04,0.68,0.08c0.18,0.14,0.28,0.39,0.28,0.77c0.02,0.72,0,1.44,0,2.16
		c0,0.67,0.02,1.34-0.01,2.01c-0.03,0.7,0.46,1.29,0.34,2.04c-0.11,0.7-0.02,1.44-0.02,2.16c0,3.6,0,7.21,0,10.81
		c0,2.43,0,4.87,0,7.3c-0.28,1.67-0.47,3.22-0.27,4.86c0.03,0.24-0.05,0.56-0.14,0.9c-0.05,0.2-0.1,0.39-0.14,0.59
		c-0.07,0.39,0.19,0.75,0.57,0.83c0.04,0.01,0.09,0.01,0.13,0.01c0.34,0,0.64-0.24,0.7-0.58c0.03-0.16,0.07-0.32,0.12-0.49
		c0.11-0.43,0.24-0.92,0.18-1.42c-0.17-1.4-0.01-2.78,0.23-4.27c0.24-0.44,0.56-0.84,0.95-1.21c0.99,0.22,0.78-0.48,0.81-1.01
		c0.01-0.19,0.1-0.37,0.15-0.56c0.26-1.08,0.7-2.15,0.75-3.23c0.08-1.71,0.42-3.39,0.38-5.12c-0.09-4.12-0.04-8.24-0.02-12.36
		c0.01-0.84-0.02-1.65,0.23-2.52c0.23-0.79-0.11-1.75-0.29-2.62C22.84,27.9,22.41,27.66,22.16,27.66z"/>
	<path class="st1" d="M8.79,28.7C8,28.1,7.18,27.58,6.1,27.63c-1.04,0.05-2.09,0.03-3.13,0c-0.54-0.01-1.14,0.18-1.61-0.29
		c-0.02-0.02-0.33,0.16-0.38,0.29c-0.07,0.18-0.02,0.41-0.02,0.73c-0.25,0.73,0.35,1,0.96,1.33c0.35,0.19,0.87-0.1,1.1,0.41
		c0.04,0.08,0.38,0.05,0.39,0.12c0.15,0.61,0.53,1.36,0.31,1.83c-0.29,0.62-0.23,1.18-0.23,1.76c-0.02,2.88-0.02,5.77-0.01,8.65
		c-0.26,0.6-0.25,1.21-0.24,1.75l0,0.4c0,0.75,0,1.46-0.26,2.09c-0.15,0.36,0.02,0.78,0.39,0.93c0.09,0.04,0.18,0.05,0.27,0.05
		c0.28,0,0.55-0.16,0.66-0.44c0.37-0.89,0.37-1.78,0.37-2.64l0-0.43c-0.01-0.52-0.02-0.96,0.21-1.31c0.01-0.02,0.02-0.05,0.03-0.07
		c0.19-0.25,0.43-0.48,0.72-0.67c0.82-0.53,1.07-1.18,1-2.06c-0.1-1.35,0.35-2.64,0.68-3.9c0.17-0.63,0.38-1.29,0.54-1.93
		c0.4-1.6,0.62-3.25,1-4.86C8.9,29.1,9.12,28.95,8.79,28.7z"/>
	<path class="st1" d="M38.28,28.6c-0.41-0.05-0.84-0.2-0.86-0.48c-0.05-0.59-0.41-0.47-0.75-0.48c-0.63-0.01-1.25,0-1.88,0
		c-0.42,0-0.83,0-1.25,0c-0.21,0-0.42-0.02-0.62,0.01c-0.19,0.02-0.52,0.05-0.54,0.14c-0.06,0.22-0.05,0.53,0.07,0.71
		c0.19,0.3,0.61,0.48,0.72,0.79c0.07,0.22-0.17,0.53,0.18,0.76c0.35,0.23,0.31,0.59,0.16,0.94c-0.07,0.18-0.21,0.35-0.22,0.52
		c-0.03,1.45-0.01,2.89-0.28,4.35c-0.21,1.14-0.05,2.36-0.04,3.54c0,0.53,0.05,0.48,0.62,0.81c0.54,0.32,0.87,0.12,1.18-0.26
		c0.21-0.26,0.39-0.55,0.55-0.85c0.3-0.56,0.56,0.12,0.84,0.01c0.09-0.04,0.24-0.13,0.24-0.14c-0.25-0.61,0.79-1.11,0.13-1.81
		c-0.18-0.2,0.01-0.73,0.02-1.12c0.18,0.07,0.32,0.47,0.55,0.07c0.12-0.21,0.25-0.41,0.33-0.64c0.2-0.54,0.42-1.07,0.54-1.63
		c0.16-0.72,0.04-1.56,0.38-2.15c0.39-0.69,0.04-1.46,0.55-2.11C39.18,29.21,38.84,28.67,38.28,28.6z"/>
</g>
</svg>
